<?xml version="1.0" encoding="UTF-8" standalone="no"?>
<!DOCTYPE svg PUBLIC "-//W3C//DTD SVG 1.1//EN"
 "http://www.w3.org/Graphics/SVG/1.1/DTD/svg11.dtd">
<!-- Generated by graphviz version 2.38.0 (20140413.2041)
 -->
<!-- Title: dict.c Pages: 1 -->
<svg width="379pt" height="82pt"
 viewBox="0.00 0.00 378.74 82.00" xmlns="http://www.w3.org/2000/svg" xmlns:xlink="http://www.w3.org/1999/xlink">
<g id="graph0" class="graph" transform="scale(1 1) rotate(0) translate(4 78)">
<title>dict.c</title>
<polygon fill="white" stroke="none" points="-4,4 -4,-78 374.736,-78 374.736,4 -4,4"/>
<!-- Node0 -->
<g id="node1" class="node"><title>Node0</title>
<polygon fill="#bfbfbf" stroke="black" points="159.281,-55.5 159.281,-73.5 198.621,-73.5 198.621,-55.5 159.281,-55.5"/>
<text text-anchor="middle" x="178.951" y="-61.5" font-family="Helvetica,sans-Serif" font-size="10.00">dict.c</text>
</g>
<!-- Node1 -->
<g id="node2" class="node"><title>Node1</title>
<g id="a_node2"><a xlink:href="dict_8h.html" target="_top" xlink:title="Enthält die Schnittstelle für ein assoziatives Array (Wörterbuch). ">
<polygon fill="white" stroke="black" points="0,-0.5 0,-18.5 39.9014,-18.5 39.9014,-0.5 0,-0.5"/>
<text text-anchor="middle" x="19.9507" y="-6.5" font-family="Helvetica,sans-Serif" font-size="10.00">dict.h</text>
</a>
</g>
</g>
<!-- Node0&#45;&gt;Node1 -->
<g id="edge1" class="edge"><title>Node0&#45;&gt;Node1</title>
<path fill="none" stroke="midnightblue" d="M159.135,-56.8947C131.642,-47.7303 81.7062,-31.0852 49.7197,-20.423"/>
<polygon fill="midnightblue" stroke="midnightblue" points="50.61,-17.0305 40.0164,-17.1886 48.3964,-23.6713 50.61,-17.0305"/>
</g>
<!-- Node2 -->
<g id="node3" class="node"><title>Node2</title>
<polygon fill="white" stroke="#bfbfbf" points="58.2192,-0.5 58.2192,-18.5 103.682,-18.5 103.682,-0.5 58.2192,-0.5"/>
<text text-anchor="middle" x="80.9507" y="-6.5" font-family="Helvetica,sans-Serif" font-size="10.00">stdio.h</text>
</g>
<!-- Node0&#45;&gt;Node2 -->
<g id="edge2" class="edge"><title>Node0&#45;&gt;Node2</title>
<path fill="none" stroke="midnightblue" d="M164.067,-55.4504C148.381,-46.9675 123.437,-33.477 104.962,-23.486"/>
<polygon fill="midnightblue" stroke="midnightblue" points="106.436,-20.3038 95.9748,-18.6253 103.106,-26.461 106.436,-20.3038"/>
</g>
<!-- Node3 -->
<g id="node4" class="node"><title>Node3</title>
<polygon fill="white" stroke="#bfbfbf" points="122.108,-0.5 122.108,-18.5 169.793,-18.5 169.793,-0.5 122.108,-0.5"/>
<text text-anchor="middle" x="145.951" y="-6.5" font-family="Helvetica,sans-Serif" font-size="10.00">stdlib.h</text>
</g>
<!-- Node0&#45;&gt;Node3 -->
<g id="edge3" class="edge"><title>Node0&#45;&gt;Node3</title>
<path fill="none" stroke="midnightblue" d="M173.794,-55.2188C169.118,-47.7074 162.084,-36.411 156.256,-27.0515"/>
<polygon fill="midnightblue" stroke="midnightblue" points="159.219,-25.1886 150.963,-18.5496 153.277,-28.8885 159.219,-25.1886"/>
</g>
<!-- Node4 -->
<g id="node5" class="node"><title>Node4</title>
<polygon fill="white" stroke="#bfbfbf" points="187.554,-0.5 187.554,-18.5 236.347,-18.5 236.347,-0.5 187.554,-0.5"/>
<text text-anchor="middle" x="211.951" y="-6.5" font-family="Helvetica,sans-Serif" font-size="10.00">string.h</text>
</g>
<!-- Node0&#45;&gt;Node4 -->
<g id="edge4" class="edge"><title>Node0&#45;&gt;Node4</title>
<path fill="none" stroke="midnightblue" d="M184.107,-55.2188C188.784,-47.7074 195.817,-36.411 201.645,-27.0515"/>
<polygon fill="midnightblue" stroke="midnightblue" points="204.624,-28.8885 206.939,-18.5496 198.682,-25.1886 204.624,-28.8885"/>
</g>
<!-- Node5 -->
<g id="node6" class="node"><title>Node5</title>
<polygon fill="white" stroke="#bfbfbf" points="254.394,-0.5 254.394,-18.5 301.507,-18.5 301.507,-0.5 254.394,-0.5"/>
<text text-anchor="middle" x="277.951" y="-6.5" font-family="Helvetica,sans-Serif" font-size="10.00">limits.h</text>
</g>
<!-- Node0&#45;&gt;Node5 -->
<g id="edge5" class="edge"><title>Node0&#45;&gt;Node5</title>
<path fill="none" stroke="midnightblue" d="M193.987,-55.4504C209.905,-46.9286 235.263,-33.3532 253.95,-23.3487"/>
<polygon fill="midnightblue" stroke="midnightblue" points="255.609,-26.4308 262.773,-18.6253 252.305,-20.2595 255.609,-26.4308"/>
</g>
<!-- Node6 -->
<g id="node7" class="node"><title>Node6</title>
<polygon fill="white" stroke="#bfbfbf" points="319.165,-0.5 319.165,-18.5 370.736,-18.5 370.736,-0.5 319.165,-0.5"/>
<text text-anchor="middle" x="344.951" y="-6.5" font-family="Helvetica,sans-Serif" font-size="10.00">assert.h</text>
</g>
<!-- Node0&#45;&gt;Node6 -->
<g id="edge6" class="edge"><title>Node0&#45;&gt;Node6</title>
<path fill="none" stroke="midnightblue" d="M198.645,-57.2121C226.041,-48.465 276.093,-32.4846 309.935,-21.6797"/>
<polygon fill="midnightblue" stroke="midnightblue" points="311.412,-24.8822 319.874,-18.5064 309.283,-18.2138 311.412,-24.8822"/>
</g>
</g>
</svg>
