<?xml version="1.0" encoding="UTF-8" standalone="no"?>
<!DOCTYPE svg PUBLIC "-//W3C//DTD SVG 1.1//EN"
 "http://www.w3.org/Graphics/SVG/1.1/DTD/svg11.dtd">
<!-- Generated by graphviz version 2.38.0 (20140413.2041)
 -->
<!-- Title: dict.h Pages: 1 -->
<svg width="159pt" height="137pt"
 viewBox="0.00 0.00 158.96 137.00" xmlns="http://www.w3.org/2000/svg" xmlns:xlink="http://www.w3.org/1999/xlink">
<g id="graph0" class="graph" transform="scale(1 1) rotate(0) translate(4 133)">
<title>dict.h</title>
<polygon fill="white" stroke="none" points="-4,4 -4,-133 154.956,-133 154.956,4 -4,4"/>
<!-- Node1 -->
<g id="node1" class="node"><title>Node1</title>
<polygon fill="#bfbfbf" stroke="black" points="32.7192,-110.5 32.7192,-128.5 72.6206,-128.5 72.6206,-110.5 32.7192,-110.5"/>
<text text-anchor="middle" x="52.6699" y="-116.5" font-family="Helvetica,sans-Serif" font-size="10.00">dict.h</text>
</g>
<!-- Node2 -->
<g id="node2" class="node"><title>Node2</title>
<g id="a_node2"><a xlink:href="dict_8c.html" target="_top" xlink:title="Implementation des assoziativen Arrays. ">
<polygon fill="white" stroke="black" points="0,-55.5 0,-73.5 39.3398,-73.5 39.3398,-55.5 0,-55.5"/>
<text text-anchor="middle" x="19.6699" y="-61.5" font-family="Helvetica,sans-Serif" font-size="10.00">dict.c</text>
</a>
</g>
</g>
<!-- Node1&#45;&gt;Node2 -->
<g id="edge1" class="edge"><title>Node1&#45;&gt;Node2</title>
<path fill="none" stroke="midnightblue" d="M42.1832,-101.658C36.331,-92.2587 29.3097,-80.9821 24.6819,-73.5496"/>
<polygon fill="midnightblue" stroke="midnightblue" points="39.2569,-103.58 47.5137,-110.219 45.1992,-99.8798 39.2569,-103.58"/>
</g>
<!-- Node3 -->
<g id="node3" class="node"><title>Node3</title>
<g id="a_node3"><a xlink:href="symtab_8h.html" target="_top" xlink:title="Enthält eine Datenstruktur für die Verwaltung von Symbolen in einer Tabelle mit geschichteten Sichtba...">
<polygon fill="white" stroke="black" points="57.3843,-55.5 57.3843,-73.5 113.956,-73.5 113.956,-55.5 57.3843,-55.5"/>
<text text-anchor="middle" x="85.6699" y="-61.5" font-family="Helvetica,sans-Serif" font-size="10.00">symtab.h</text>
</a>
</g>
</g>
<!-- Node1&#45;&gt;Node3 -->
<g id="edge2" class="edge"><title>Node1&#45;&gt;Node3</title>
<path fill="none" stroke="midnightblue" d="M63.1567,-101.658C69.0088,-92.2587 76.0302,-80.9821 80.6579,-73.5496"/>
<polygon fill="midnightblue" stroke="midnightblue" points="60.1407,-99.8798 57.8262,-110.219 66.0829,-103.58 60.1407,-99.8798"/>
</g>
<!-- Node4 -->
<g id="node4" class="node"><title>Node4</title>
<g id="a_node4"><a xlink:href="symtab_8c.html" target="_top" xlink:title="Implementation der Symboltabelle. ">
<polygon fill="white" stroke="black" points="20.665,-0.5 20.665,-18.5 76.6748,-18.5 76.6748,-0.5 20.665,-0.5"/>
<text text-anchor="middle" x="48.6699" y="-6.5" font-family="Helvetica,sans-Serif" font-size="10.00">symtab.c</text>
</a>
</g>
</g>
<!-- Node3&#45;&gt;Node4 -->
<g id="edge3" class="edge"><title>Node3&#45;&gt;Node4</title>
<path fill="none" stroke="midnightblue" d="M74.1167,-46.9507C67.5148,-37.4941 59.5322,-26.0595 54.2894,-18.5496"/>
<polygon fill="midnightblue" stroke="midnightblue" points="71.2945,-49.0226 79.8887,-55.2188 77.0343,-45.0157 71.2945,-49.0226"/>
</g>
<!-- Node5 -->
<g id="node5" class="node"><title>Node5</title>
<g id="a_node5"><a xlink:href="syntree_8c.html" target="_top" xlink:title="Implementation des Syntaxbaumes. ">
<polygon fill="white" stroke="black" points="94.3843,-0.5 94.3843,-18.5 150.956,-18.5 150.956,-0.5 94.3843,-0.5"/>
<text text-anchor="middle" x="122.67" y="-6.5" font-family="Helvetica,sans-Serif" font-size="10.00">syntree.c</text>
</a>
</g>
</g>
<!-- Node3&#45;&gt;Node5 -->
<g id="edge4" class="edge"><title>Node3&#45;&gt;Node5</title>
<path fill="none" stroke="midnightblue" d="M97.2232,-46.9507C103.825,-37.4941 111.808,-26.0595 117.05,-18.5496"/>
<polygon fill="midnightblue" stroke="midnightblue" points="94.3056,-45.0157 91.4512,-55.2188 100.045,-49.0226 94.3056,-45.0157"/>
</g>
</g>
</svg>
