<?xml version="1.0" encoding="UTF-8" standalone="no"?>
<!DOCTYPE svg PUBLIC "-//W3C//DTD SVG 1.1//EN"
 "http://www.w3.org/Graphics/SVG/1.1/DTD/svg11.dtd">
<!-- Generated by graphviz version 2.38.0 (20140413.2041)
 -->
<!-- Title: stack.h Pages: 1 -->
<svg width="167pt" height="137pt"
 viewBox="0.00 0.00 166.84 137.00" xmlns="http://www.w3.org/2000/svg" xmlns:xlink="http://www.w3.org/1999/xlink">
<g id="graph0" class="graph" transform="scale(1 1) rotate(0) translate(4 133)">
<title>stack.h</title>
<polygon fill="white" stroke="none" points="-4,4 -4,-133 162.845,-133 162.845,4 -4,4"/>
<!-- Node2 -->
<g id="node1" class="node"><title>Node2</title>
<polygon fill="#bfbfbf" stroke="black" points="34.7192,-110.5 34.7192,-128.5 82.3989,-128.5 82.3989,-110.5 34.7192,-110.5"/>
<text text-anchor="middle" x="58.5591" y="-116.5" font-family="Helvetica,sans-Serif" font-size="10.00">stack.h</text>
</g>
<!-- Node3 -->
<g id="node2" class="node"><title>Node3</title>
<g id="a_node2"><a xlink:href="stack_8c.html" target="_top" xlink:title="Implementation des generalisierten Stacks. ">
<polygon fill="white" stroke="black" points="0,-55.5 0,-73.5 47.1182,-73.5 47.1182,-55.5 0,-55.5"/>
<text text-anchor="middle" x="23.5591" y="-61.5" font-family="Helvetica,sans-Serif" font-size="10.00">stack.c</text>
</a>
</g>
</g>
<!-- Node2&#45;&gt;Node3 -->
<g id="edge1" class="edge"><title>Node2&#45;&gt;Node3</title>
<path fill="none" stroke="midnightblue" d="M47.4368,-101.658C41.2299,-92.2587 33.7831,-80.9821 28.8748,-73.5496"/>
<polygon fill="midnightblue" stroke="midnightblue" points="44.659,-103.803 53.0903,-110.219 50.5003,-99.9454 44.659,-103.803"/>
</g>
<!-- Node4 -->
<g id="node3" class="node"><title>Node4</title>
<g id="a_node3"><a xlink:href="symtab_8h.html" target="_top" xlink:title="Enthält eine Datenstruktur für die Verwaltung von Symbolen in einer Tabelle mit geschichteten Sichtba...">
<polygon fill="white" stroke="black" points="65.2734,-55.5 65.2734,-73.5 121.845,-73.5 121.845,-55.5 65.2734,-55.5"/>
<text text-anchor="middle" x="93.5591" y="-61.5" font-family="Helvetica,sans-Serif" font-size="10.00">symtab.h</text>
</a>
</g>
</g>
<!-- Node2&#45;&gt;Node4 -->
<g id="edge2" class="edge"><title>Node2&#45;&gt;Node4</title>
<path fill="none" stroke="midnightblue" d="M69.6814,-101.658C75.8882,-92.2587 83.3351,-80.9821 88.2433,-73.5496"/>
<polygon fill="midnightblue" stroke="midnightblue" points="66.6179,-99.9454 64.0278,-110.219 72.4591,-103.803 66.6179,-99.9454"/>
</g>
<!-- Node5 -->
<g id="node4" class="node"><title>Node5</title>
<g id="a_node4"><a xlink:href="symtab_8c.html" target="_top" xlink:title="Implementation der Symboltabelle. ">
<polygon fill="white" stroke="black" points="28.5542,-0.5 28.5542,-18.5 84.564,-18.5 84.564,-0.5 28.5542,-0.5"/>
<text text-anchor="middle" x="56.5591" y="-6.5" font-family="Helvetica,sans-Serif" font-size="10.00">symtab.c</text>
</a>
</g>
</g>
<!-- Node4&#45;&gt;Node5 -->
<g id="edge3" class="edge"><title>Node4&#45;&gt;Node5</title>
<path fill="none" stroke="midnightblue" d="M82.0058,-46.9507C75.404,-37.4941 67.4214,-26.0595 62.1786,-18.5496"/>
<polygon fill="midnightblue" stroke="midnightblue" points="79.1837,-49.0226 87.7778,-55.2188 84.9234,-45.0157 79.1837,-49.0226"/>
</g>
<!-- Node6 -->
<g id="node5" class="node"><title>Node6</title>
<g id="a_node5"><a xlink:href="syntree_8c.html" target="_top" xlink:title="Implementation des Syntaxbaumes. ">
<polygon fill="white" stroke="black" points="102.273,-0.5 102.273,-18.5 158.845,-18.5 158.845,-0.5 102.273,-0.5"/>
<text text-anchor="middle" x="130.559" y="-6.5" font-family="Helvetica,sans-Serif" font-size="10.00">syntree.c</text>
</a>
</g>
</g>
<!-- Node4&#45;&gt;Node6 -->
<g id="edge4" class="edge"><title>Node4&#45;&gt;Node6</title>
<path fill="none" stroke="midnightblue" d="M105.112,-46.9507C111.714,-37.4941 119.697,-26.0595 124.94,-18.5496"/>
<polygon fill="midnightblue" stroke="midnightblue" points="102.195,-45.0157 99.3403,-55.2188 107.934,-49.0226 102.195,-45.0157"/>
</g>
</g>
</svg>
