<?xml version="1.0" encoding="UTF-8" standalone="no"?>
<!DOCTYPE svg PUBLIC "-//W3C//DTD SVG 1.1//EN"
 "http://www.w3.org/Graphics/SVG/1.1/DTD/svg11.dtd">
<!-- Generated by graphviz version 2.38.0 (20140413.2041)
 -->
<!-- Title: stack.c Pages: 1 -->
<svg width="258pt" height="137pt"
 viewBox="0.00 0.00 257.58 137.00" xmlns="http://www.w3.org/2000/svg" xmlns:xlink="http://www.w3.org/1999/xlink">
<g id="graph0" class="graph" transform="scale(1 1) rotate(0) translate(4 133)">
<title>stack.c</title>
<polygon fill="white" stroke="none" points="-4,4 -4,-133 253.576,-133 253.576,4 -4,4"/>
<!-- Node0 -->
<g id="node1" class="node"><title>Node0</title>
<polygon fill="#bfbfbf" stroke="black" points="99.2314,-110.5 99.2314,-128.5 146.35,-128.5 146.35,-110.5 99.2314,-110.5"/>
<text text-anchor="middle" x="122.791" y="-116.5" font-family="Helvetica,sans-Serif" font-size="10.00">stack.c</text>
</g>
<!-- Node1 -->
<g id="node2" class="node"><title>Node1</title>
<g id="a_node2"><a xlink:href="stack_8h.html" target="_top" xlink:title="Enthält die Schnittstelle eines generalisierten Stacks. ">
<polygon fill="white" stroke="black" points="1.95068,-55.5 1.95068,-73.5 49.6304,-73.5 49.6304,-55.5 1.95068,-55.5"/>
<text text-anchor="middle" x="25.7905" y="-61.5" font-family="Helvetica,sans-Serif" font-size="10.00">stack.h</text>
</a>
</g>
</g>
<!-- Node0&#45;&gt;Node1 -->
<g id="edge1" class="edge"><title>Node0&#45;&gt;Node1</title>
<path fill="none" stroke="midnightblue" d="M108.058,-110.45C92.5329,-101.968 67.8428,-88.477 49.5573,-78.486"/>
<polygon fill="midnightblue" stroke="midnightblue" points="51.1151,-75.3488 40.6614,-73.6253 47.7587,-81.4917 51.1151,-75.3488"/>
</g>
<!-- Node3 -->
<g id="node4" class="node"><title>Node3</title>
<polygon fill="white" stroke="#bfbfbf" points="68.0591,-55.5 68.0591,-73.5 113.522,-73.5 113.522,-55.5 68.0591,-55.5"/>
<text text-anchor="middle" x="90.7905" y="-61.5" font-family="Helvetica,sans-Serif" font-size="10.00">stdio.h</text>
</g>
<!-- Node0&#45;&gt;Node3 -->
<g id="edge3" class="edge"><title>Node0&#45;&gt;Node3</title>
<path fill="none" stroke="midnightblue" d="M117.791,-110.219C113.303,-102.786 106.577,-91.646 100.961,-82.3446"/>
<polygon fill="midnightblue" stroke="midnightblue" points="103.816,-80.3012 95.6506,-73.5496 97.8231,-83.9193 103.816,-80.3012"/>
</g>
<!-- Node4 -->
<g id="node5" class="node"><title>Node4</title>
<polygon fill="white" stroke="#bfbfbf" points="131.948,-55.5 131.948,-73.5 179.633,-73.5 179.633,-55.5 131.948,-55.5"/>
<text text-anchor="middle" x="155.791" y="-61.5" font-family="Helvetica,sans-Serif" font-size="10.00">stdlib.h</text>
</g>
<!-- Node0&#45;&gt;Node4 -->
<g id="edge4" class="edge"><title>Node0&#45;&gt;Node4</title>
<path fill="none" stroke="midnightblue" d="M127.947,-110.219C132.624,-102.707 139.657,-91.411 145.485,-82.0515"/>
<polygon fill="midnightblue" stroke="midnightblue" points="148.464,-83.8885 150.779,-73.5496 142.522,-80.1886 148.464,-83.8885"/>
</g>
<!-- Node5 -->
<g id="node6" class="node"><title>Node5</title>
<polygon fill="white" stroke="#bfbfbf" points="198.005,-55.5 198.005,-73.5 249.576,-73.5 249.576,-55.5 198.005,-55.5"/>
<text text-anchor="middle" x="223.791" y="-61.5" font-family="Helvetica,sans-Serif" font-size="10.00">assert.h</text>
</g>
<!-- Node0&#45;&gt;Node5 -->
<g id="edge5" class="edge"><title>Node0&#45;&gt;Node5</title>
<path fill="none" stroke="midnightblue" d="M138.13,-110.45C154.37,-101.929 180.24,-88.3532 199.305,-78.3487"/>
<polygon fill="midnightblue" stroke="midnightblue" points="201.078,-81.3712 208.306,-73.6253 197.825,-75.1728 201.078,-81.3712"/>
</g>
<!-- Node2 -->
<g id="node3" class="node"><title>Node2</title>
<polygon fill="white" stroke="#bfbfbf" points="0,-0.5 0,-18.5 51.5811,-18.5 51.5811,-0.5 0,-0.5"/>
<text text-anchor="middle" x="25.7905" y="-6.5" font-family="Helvetica,sans-Serif" font-size="10.00">stddef.h</text>
</g>
<!-- Node1&#45;&gt;Node2 -->
<g id="edge2" class="edge"><title>Node1&#45;&gt;Node2</title>
<path fill="none" stroke="midnightblue" d="M25.7905,-55.2188C25.7905,-48.1769 25.7905,-37.8083 25.7905,-28.8277"/>
<polygon fill="midnightblue" stroke="midnightblue" points="29.2906,-28.5495 25.7905,-18.5496 22.2906,-28.5496 29.2906,-28.5495"/>
</g>
</g>
</svg>
