<?xml version="1.0" encoding="UTF-8" standalone="no"?>
<!DOCTYPE svg PUBLIC "-//W3C//DTD SVG 1.1//EN"
 "http://www.w3.org/Graphics/SVG/1.1/DTD/svg11.dtd">
<!-- Generated by graphviz version 2.38.0 (20140413.2041)
 -->
<!-- Title: symtab.h Pages: 1 -->
<svg width="212pt" height="137pt"
 viewBox="0.00 0.00 211.68 137.00" xmlns="http://www.w3.org/2000/svg" xmlns:xlink="http://www.w3.org/1999/xlink">
<g id="graph0" class="graph" transform="scale(1 1) rotate(0) translate(4 133)">
<title>symtab.h</title>
<polygon fill="white" stroke="none" points="-4,4 -4,-133 207.682,-133 207.682,4 -4,4"/>
<!-- Node0 -->
<g id="node1" class="node"><title>Node0</title>
<polygon fill="#bfbfbf" stroke="black" points="58.4458,-110.5 58.4458,-128.5 115.017,-128.5 115.017,-110.5 58.4458,-110.5"/>
<text text-anchor="middle" x="86.7314" y="-116.5" font-family="Helvetica,sans-Serif" font-size="10.00">symtab.h</text>
</g>
<!-- Node1 -->
<g id="node2" class="node"><title>Node1</title>
<polygon fill="white" stroke="#bfbfbf" points="0,-0.5 0,-18.5 45.4629,-18.5 45.4629,-0.5 0,-0.5"/>
<text text-anchor="middle" x="22.7314" y="-6.5" font-family="Helvetica,sans-Serif" font-size="10.00">stdio.h</text>
</g>
<!-- Node0&#45;&gt;Node1 -->
<g id="edge1" class="edge"><title>Node0&#45;&gt;Node1</title>
<path fill="none" stroke="midnightblue" d="M61.2552,-110.384C44.4868,-103.562 23.8334,-91.989 13.7314,-74 5.81597,-59.9046 9.77365,-41.3727 14.683,-27.9703"/>
<polygon fill="midnightblue" stroke="midnightblue" points="18.0112,-29.0819 18.6156,-18.5043 11.5469,-26.3963 18.0112,-29.0819"/>
</g>
<!-- Node2 -->
<g id="node3" class="node"><title>Node2</title>
<g id="a_node3"><a xlink:href="syntree_8h.html" target="_top" xlink:title="Enthält eine Datenstruktur für abstrakte Syntaxbäume. ">
<polygon fill="white" stroke="black" points="23.165,-55.5 23.165,-73.5 80.2979,-73.5 80.2979,-55.5 23.165,-55.5"/>
<text text-anchor="middle" x="51.7314" y="-61.5" font-family="Helvetica,sans-Serif" font-size="10.00">syntree.h</text>
</a>
</g>
</g>
<!-- Node0&#45;&gt;Node2 -->
<g id="edge2" class="edge"><title>Node0&#45;&gt;Node2</title>
<path fill="none" stroke="midnightblue" d="M81.2627,-110.219C76.3024,-102.707 68.8425,-91.411 62.6617,-82.0515"/>
<polygon fill="midnightblue" stroke="midnightblue" points="65.4785,-79.9655 57.0472,-73.5496 59.6372,-83.823 65.4785,-79.9655"/>
</g>
<!-- Node3 -->
<g id="node4" class="node"><title>Node3</title>
<g id="a_node4"><a xlink:href="stack_8h.html" target="_top" xlink:title="Enthält die Schnittstelle eines generalisierten Stacks. ">
<polygon fill="white" stroke="black" points="97.8916,-55.5 97.8916,-73.5 145.571,-73.5 145.571,-55.5 97.8916,-55.5"/>
<text text-anchor="middle" x="121.731" y="-61.5" font-family="Helvetica,sans-Serif" font-size="10.00">stack.h</text>
</a>
</g>
</g>
<!-- Node0&#45;&gt;Node3 -->
<g id="edge4" class="edge"><title>Node0&#45;&gt;Node3</title>
<path fill="none" stroke="midnightblue" d="M92.2002,-110.219C97.1605,-102.707 104.62,-91.411 110.801,-82.0515"/>
<polygon fill="midnightblue" stroke="midnightblue" points="113.826,-83.823 116.416,-73.5496 107.984,-79.9655 113.826,-83.823"/>
</g>
<!-- Node5 -->
<g id="node6" class="node"><title>Node5</title>
<g id="a_node6"><a xlink:href="dict_8h.html" target="_top" xlink:title="Enthält die Schnittstelle für ein assoziatives Array (Wörterbuch). ">
<polygon fill="white" stroke="black" points="163.781,-55.5 163.781,-73.5 203.682,-73.5 203.682,-55.5 163.781,-55.5"/>
<text text-anchor="middle" x="183.731" y="-61.5" font-family="Helvetica,sans-Serif" font-size="10.00">dict.h</text>
</a>
</g>
</g>
<!-- Node0&#45;&gt;Node5 -->
<g id="edge6" class="edge"><title>Node0&#45;&gt;Node5</title>
<path fill="none" stroke="midnightblue" d="M101.464,-110.45C116.989,-101.968 141.679,-88.477 159.965,-78.486"/>
<polygon fill="midnightblue" stroke="midnightblue" points="161.763,-81.4917 168.861,-73.6253 158.407,-75.3488 161.763,-81.4917"/>
</g>
<!-- Node2&#45;&gt;Node1 -->
<g id="edge3" class="edge"><title>Node2&#45;&gt;Node1</title>
<path fill="none" stroke="midnightblue" d="M47.2002,-55.2188C43.133,-47.7856 37.0377,-36.646 31.9483,-27.3446"/>
<polygon fill="midnightblue" stroke="midnightblue" points="35.0065,-25.6421 27.1359,-18.5496 28.8657,-29.0023 35.0065,-25.6421"/>
</g>
<!-- Node4 -->
<g id="node5" class="node"><title>Node4</title>
<polygon fill="white" stroke="#bfbfbf" points="95.9409,-0.5 95.9409,-18.5 147.522,-18.5 147.522,-0.5 95.9409,-0.5"/>
<text text-anchor="middle" x="121.731" y="-6.5" font-family="Helvetica,sans-Serif" font-size="10.00">stddef.h</text>
</g>
<!-- Node3&#45;&gt;Node4 -->
<g id="edge5" class="edge"><title>Node3&#45;&gt;Node4</title>
<path fill="none" stroke="midnightblue" d="M121.731,-55.2188C121.731,-48.1769 121.731,-37.8083 121.731,-28.8277"/>
<polygon fill="midnightblue" stroke="midnightblue" points="125.232,-28.5495 121.731,-18.5496 118.232,-28.5496 125.232,-28.5495"/>
</g>
</g>
</svg>
