<?xml version="1.0" encoding="UTF-8" standalone="no"?>
<!DOCTYPE svg PUBLIC "-//W3C//DTD SVG 1.1//EN"
 "http://www.w3.org/Graphics/SVG/1.1/DTD/svg11.dtd">
<!-- Generated by graphviz version 2.38.0 (20140413.2041)
 -->
<!-- Title: symtab.c Pages: 1 -->
<svg width="325pt" height="192pt"
 viewBox="0.00 0.00 325.13 192.00" xmlns="http://www.w3.org/2000/svg" xmlns:xlink="http://www.w3.org/1999/xlink">
<g id="graph0" class="graph" transform="scale(1 1) rotate(0) translate(4 188)">
<title>symtab.c</title>
<polygon fill="white" stroke="none" points="-4,4 -4,-188 321.128,-188 321.128,4 -4,4"/>
<!-- Node0 -->
<g id="node1" class="node"><title>Node0</title>
<polygon fill="#bfbfbf" stroke="black" points="164.727,-165.5 164.727,-183.5 220.736,-183.5 220.736,-165.5 164.727,-165.5"/>
<text text-anchor="middle" x="192.731" y="-171.5" font-family="Helvetica,sans-Serif" font-size="10.00">symtab.c</text>
</g>
<!-- Node1 -->
<g id="node2" class="node"><title>Node1</title>
<g id="a_node2"><a xlink:href="symtab_8h.html" target="_top" xlink:title="Enthält eine Datenstruktur für die Verwaltung von Symbolen in einer Tabelle mit geschichteten Sichtba...">
<polygon fill="white" stroke="black" points="58.4458,-110.5 58.4458,-128.5 115.017,-128.5 115.017,-110.5 58.4458,-110.5"/>
<text text-anchor="middle" x="86.7314" y="-116.5" font-family="Helvetica,sans-Serif" font-size="10.00">symtab.h</text>
</a>
</g>
</g>
<!-- Node0&#45;&gt;Node1 -->
<g id="edge1" class="edge"><title>Node0&#45;&gt;Node1</title>
<path fill="none" stroke="midnightblue" d="M176.632,-165.45C159.511,-156.89 132.19,-143.229 112.155,-133.212"/>
<polygon fill="midnightblue" stroke="midnightblue" points="113.492,-129.967 102.982,-128.625 110.361,-136.228 113.492,-129.967"/>
</g>
<!-- Node7 -->
<g id="node8" class="node"><title>Node7</title>
<polygon fill="white" stroke="#bfbfbf" points="132.946,-110.5 132.946,-128.5 184.517,-128.5 184.517,-110.5 132.946,-110.5"/>
<text text-anchor="middle" x="158.731" y="-116.5" font-family="Helvetica,sans-Serif" font-size="10.00">assert.h</text>
</g>
<!-- Node0&#45;&gt;Node7 -->
<g id="edge8" class="edge"><title>Node0&#45;&gt;Node7</title>
<path fill="none" stroke="midnightblue" d="M187.419,-165.219C182.6,-157.707 175.354,-146.411 169.349,-137.052"/>
<polygon fill="midnightblue" stroke="midnightblue" points="172.241,-135.077 163.895,-128.55 166.349,-138.856 172.241,-135.077"/>
</g>
<!-- Node8 -->
<g id="node9" class="node"><title>Node8</title>
<polygon fill="white" stroke="#bfbfbf" points="202.889,-110.5 202.889,-128.5 250.574,-128.5 250.574,-110.5 202.889,-110.5"/>
<text text-anchor="middle" x="226.731" y="-116.5" font-family="Helvetica,sans-Serif" font-size="10.00">stdlib.h</text>
</g>
<!-- Node0&#45;&gt;Node8 -->
<g id="edge9" class="edge"><title>Node0&#45;&gt;Node8</title>
<path fill="none" stroke="midnightblue" d="M198.044,-165.219C202.863,-157.707 210.109,-146.411 216.113,-137.052"/>
<polygon fill="midnightblue" stroke="midnightblue" points="219.114,-138.856 221.568,-128.55 213.222,-135.077 219.114,-138.856"/>
</g>
<!-- Node9 -->
<g id="node10" class="node"><title>Node9</title>
<polygon fill="white" stroke="#bfbfbf" points="268.335,-110.5 268.335,-128.5 317.128,-128.5 317.128,-110.5 268.335,-110.5"/>
<text text-anchor="middle" x="292.731" y="-116.5" font-family="Helvetica,sans-Serif" font-size="10.00">string.h</text>
</g>
<!-- Node0&#45;&gt;Node9 -->
<g id="edge10" class="edge"><title>Node0&#45;&gt;Node9</title>
<path fill="none" stroke="midnightblue" d="M207.919,-165.45C223.998,-156.929 249.612,-143.353 268.489,-133.349"/>
<polygon fill="midnightblue" stroke="midnightblue" points="270.204,-136.401 277.401,-128.625 266.926,-130.216 270.204,-136.401"/>
</g>
<!-- Node2 -->
<g id="node3" class="node"><title>Node2</title>
<polygon fill="white" stroke="#bfbfbf" points="0,-0.5 0,-18.5 45.4629,-18.5 45.4629,-0.5 0,-0.5"/>
<text text-anchor="middle" x="22.7314" y="-6.5" font-family="Helvetica,sans-Serif" font-size="10.00">stdio.h</text>
</g>
<!-- Node1&#45;&gt;Node2 -->
<g id="edge2" class="edge"><title>Node1&#45;&gt;Node2</title>
<path fill="none" stroke="midnightblue" d="M61.2552,-110.384C44.4868,-103.562 23.8334,-91.989 13.7314,-74 5.81597,-59.9046 9.77365,-41.3727 14.683,-27.9703"/>
<polygon fill="midnightblue" stroke="midnightblue" points="18.0112,-29.0819 18.6156,-18.5043 11.5469,-26.3963 18.0112,-29.0819"/>
</g>
<!-- Node3 -->
<g id="node4" class="node"><title>Node3</title>
<g id="a_node4"><a xlink:href="syntree_8h.html" target="_top" xlink:title="Enthält eine Datenstruktur für abstrakte Syntaxbäume. ">
<polygon fill="white" stroke="black" points="23.165,-55.5 23.165,-73.5 80.2979,-73.5 80.2979,-55.5 23.165,-55.5"/>
<text text-anchor="middle" x="51.7314" y="-61.5" font-family="Helvetica,sans-Serif" font-size="10.00">syntree.h</text>
</a>
</g>
</g>
<!-- Node1&#45;&gt;Node3 -->
<g id="edge3" class="edge"><title>Node1&#45;&gt;Node3</title>
<path fill="none" stroke="midnightblue" d="M81.2627,-110.219C76.3024,-102.707 68.8425,-91.411 62.6617,-82.0515"/>
<polygon fill="midnightblue" stroke="midnightblue" points="65.4785,-79.9655 57.0472,-73.5496 59.6372,-83.823 65.4785,-79.9655"/>
</g>
<!-- Node4 -->
<g id="node5" class="node"><title>Node4</title>
<g id="a_node5"><a xlink:href="stack_8h.html" target="_top" xlink:title="Enthält die Schnittstelle eines generalisierten Stacks. ">
<polygon fill="white" stroke="black" points="97.8916,-55.5 97.8916,-73.5 145.571,-73.5 145.571,-55.5 97.8916,-55.5"/>
<text text-anchor="middle" x="121.731" y="-61.5" font-family="Helvetica,sans-Serif" font-size="10.00">stack.h</text>
</a>
</g>
</g>
<!-- Node1&#45;&gt;Node4 -->
<g id="edge5" class="edge"><title>Node1&#45;&gt;Node4</title>
<path fill="none" stroke="midnightblue" d="M92.2002,-110.219C97.1605,-102.707 104.62,-91.411 110.801,-82.0515"/>
<polygon fill="midnightblue" stroke="midnightblue" points="113.826,-83.823 116.416,-73.5496 107.984,-79.9655 113.826,-83.823"/>
</g>
<!-- Node6 -->
<g id="node7" class="node"><title>Node6</title>
<g id="a_node7"><a xlink:href="dict_8h.html" target="_top" xlink:title="Enthält die Schnittstelle für ein assoziatives Array (Wörterbuch). ">
<polygon fill="white" stroke="black" points="163.781,-55.5 163.781,-73.5 203.682,-73.5 203.682,-55.5 163.781,-55.5"/>
<text text-anchor="middle" x="183.731" y="-61.5" font-family="Helvetica,sans-Serif" font-size="10.00">dict.h</text>
</a>
</g>
</g>
<!-- Node1&#45;&gt;Node6 -->
<g id="edge7" class="edge"><title>Node1&#45;&gt;Node6</title>
<path fill="none" stroke="midnightblue" d="M101.464,-110.45C116.989,-101.968 141.679,-88.477 159.965,-78.486"/>
<polygon fill="midnightblue" stroke="midnightblue" points="161.763,-81.4917 168.861,-73.6253 158.407,-75.3488 161.763,-81.4917"/>
</g>
<!-- Node3&#45;&gt;Node2 -->
<g id="edge4" class="edge"><title>Node3&#45;&gt;Node2</title>
<path fill="none" stroke="midnightblue" d="M47.2002,-55.2188C43.133,-47.7856 37.0377,-36.646 31.9483,-27.3446"/>
<polygon fill="midnightblue" stroke="midnightblue" points="35.0065,-25.6421 27.1359,-18.5496 28.8657,-29.0023 35.0065,-25.6421"/>
</g>
<!-- Node5 -->
<g id="node6" class="node"><title>Node5</title>
<polygon fill="white" stroke="#bfbfbf" points="95.9409,-0.5 95.9409,-18.5 147.522,-18.5 147.522,-0.5 95.9409,-0.5"/>
<text text-anchor="middle" x="121.731" y="-6.5" font-family="Helvetica,sans-Serif" font-size="10.00">stddef.h</text>
</g>
<!-- Node4&#45;&gt;Node5 -->
<g id="edge6" class="edge"><title>Node4&#45;&gt;Node5</title>
<path fill="none" stroke="midnightblue" d="M121.731,-55.2188C121.731,-48.1769 121.731,-37.8083 121.731,-28.8277"/>
<polygon fill="midnightblue" stroke="midnightblue" points="125.232,-28.5495 121.731,-18.5496 118.232,-28.5496 125.232,-28.5495"/>
</g>
</g>
</svg>
