<?xml version="1.0" encoding="UTF-8" standalone="no"?>
<!DOCTYPE svg PUBLIC "-//W3C//DTD SVG 1.1//EN"
 "http://www.w3.org/Graphics/SVG/1.1/DTD/svg11.dtd">
<!-- Generated by graphviz version 2.38.0 (20140413.2041)
 -->
<!-- Title: symtab.h Pages: 1 -->
<svg width="138pt" height="82pt"
 viewBox="0.00 0.00 138.29 82.00" xmlns="http://www.w3.org/2000/svg" xmlns:xlink="http://www.w3.org/1999/xlink">
<g id="graph0" class="graph" transform="scale(1 1) rotate(0) translate(4 78)">
<title>symtab.h</title>
<polygon fill="white" stroke="none" points="-4,4 -4,-78 134.291,-78 134.291,4 -4,4"/>
<!-- Node6 -->
<g id="node1" class="node"><title>Node6</title>
<polygon fill="#bfbfbf" stroke="black" points="36.7192,-55.5 36.7192,-73.5 93.2905,-73.5 93.2905,-55.5 36.7192,-55.5"/>
<text text-anchor="middle" x="65.0049" y="-61.5" font-family="Helvetica,sans-Serif" font-size="10.00">symtab.h</text>
</g>
<!-- Node7 -->
<g id="node2" class="node"><title>Node7</title>
<g id="a_node2"><a xlink:href="symtab_8c.html" target="_top" xlink:title="Implementation der Symboltabelle. ">
<polygon fill="white" stroke="black" points="0,-0.5 0,-18.5 56.0098,-18.5 56.0098,-0.5 0,-0.5"/>
<text text-anchor="middle" x="28.0049" y="-6.5" font-family="Helvetica,sans-Serif" font-size="10.00">symtab.c</text>
</a>
</g>
</g>
<!-- Node6&#45;&gt;Node7 -->
<g id="edge1" class="edge"><title>Node6&#45;&gt;Node7</title>
<path fill="none" stroke="midnightblue" d="M53.4516,-46.9507C46.8498,-37.4941 38.8672,-26.0595 33.6244,-18.5496"/>
<polygon fill="midnightblue" stroke="midnightblue" points="50.6295,-49.0226 59.2236,-55.2188 56.3692,-45.0157 50.6295,-49.0226"/>
</g>
<!-- Node8 -->
<g id="node3" class="node"><title>Node8</title>
<g id="a_node3"><a xlink:href="syntree_8c.html" target="_top" xlink:title="Implementation des Syntaxbaumes. ">
<polygon fill="white" stroke="black" points="73.7192,-0.5 73.7192,-18.5 130.291,-18.5 130.291,-0.5 73.7192,-0.5"/>
<text text-anchor="middle" x="102.005" y="-6.5" font-family="Helvetica,sans-Serif" font-size="10.00">syntree.c</text>
</a>
</g>
</g>
<!-- Node6&#45;&gt;Node8 -->
<g id="edge2" class="edge"><title>Node6&#45;&gt;Node8</title>
<path fill="none" stroke="midnightblue" d="M76.5581,-46.9507C83.16,-37.4941 91.1426,-26.0595 96.3854,-18.5496"/>
<polygon fill="midnightblue" stroke="midnightblue" points="73.6406,-45.0157 70.7861,-55.2188 79.3803,-49.0226 73.6406,-45.0157"/>
</g>
</g>
</svg>
