<?xml version="1.0" encoding="UTF-8" standalone="no"?>
<!DOCTYPE svg PUBLIC "-//W3C//DTD SVG 1.1//EN"
 "http://www.w3.org/Graphics/SVG/1.1/DTD/svg11.dtd">
<!-- Generated by graphviz version 2.38.0 (20140413.2041)
 -->
<!-- Title: syntree.c Pages: 1 -->
<svg width="342pt" height="192pt"
 viewBox="0.00 0.00 341.88 192.00" xmlns="http://www.w3.org/2000/svg" xmlns:xlink="http://www.w3.org/1999/xlink">
<g id="graph0" class="graph" transform="scale(1 1) rotate(0) translate(4 188)">
<title>syntree.c</title>
<polygon fill="white" stroke="none" points="-4,4 -4,-188 337.883,-188 337.883,4 -4,4"/>
<!-- Node0 -->
<g id="node1" class="node"><title>Node0</title>
<polygon fill="#bfbfbf" stroke="black" points="110.812,-165.5 110.812,-183.5 167.383,-183.5 167.383,-165.5 110.812,-165.5"/>
<text text-anchor="middle" x="139.098" y="-171.5" font-family="Helvetica,sans-Serif" font-size="10.00">syntree.c</text>
</g>
<!-- Node1 -->
<g id="node2" class="node"><title>Node1</title>
<g id="a_node2"><a xlink:href="syntree_8h.html" target="_top" xlink:title="Enthält eine Datenstruktur für abstrakte Syntaxbäume. ">
<polygon fill="white" stroke="black" points="11.5311,-55.5 11.5311,-73.5 68.6639,-73.5 68.6639,-55.5 11.5311,-55.5"/>
<text text-anchor="middle" x="40.0975" y="-61.5" font-family="Helvetica,sans-Serif" font-size="10.00">syntree.h</text>
</a>
</g>
</g>
<!-- Node0&#45;&gt;Node1 -->
<g id="edge1" class="edge"><title>Node0&#45;&gt;Node1</title>
<path fill="none" stroke="midnightblue" d="M119.354,-165.382C103.414,-157.96 81.3633,-145.61 67.0975,-129 55.7654,-115.806 48.6026,-97.1529 44.5249,-83.4769"/>
<polygon fill="midnightblue" stroke="midnightblue" points="47.8896,-82.5115 41.8953,-73.7754 41.1333,-84.3428 47.8896,-82.5115"/>
</g>
<!-- Node2 -->
<g id="node3" class="node"><title>Node2</title>
<polygon fill="white" stroke="#bfbfbf" points="17.3661,-0.5 17.3661,-18.5 62.829,-18.5 62.829,-0.5 17.3661,-0.5"/>
<text text-anchor="middle" x="40.0975" y="-6.5" font-family="Helvetica,sans-Serif" font-size="10.00">stdio.h</text>
</g>
<!-- Node0&#45;&gt;Node2 -->
<g id="edge9" class="edge"><title>Node0&#45;&gt;Node2</title>
<path fill="none" stroke="midnightblue" d="M115.023,-165.473C81.0097,-152.551 20.9295,-123.448 2.09753,-74 -4.64266,-56.302 8.97821,-37.9317 21.7468,-25.5311"/>
<polygon fill="midnightblue" stroke="midnightblue" points="24.309,-27.9338 29.3973,-18.6408 19.6244,-22.7323 24.309,-27.9338"/>
</g>
<!-- Node3 -->
<g id="node4" class="node"><title>Node3</title>
<g id="a_node4"><a xlink:href="symtab_8h.html" target="_top" xlink:title="Enthält eine Datenstruktur für die Verwaltung von Symbolen in einer Tabelle mit geschichteten Sichtba...">
<polygon fill="white" stroke="black" points="75.8119,-110.5 75.8119,-128.5 132.383,-128.5 132.383,-110.5 75.8119,-110.5"/>
<text text-anchor="middle" x="104.098" y="-116.5" font-family="Helvetica,sans-Serif" font-size="10.00">symtab.h</text>
</a>
</g>
</g>
<!-- Node0&#45;&gt;Node3 -->
<g id="edge3" class="edge"><title>Node0&#45;&gt;Node3</title>
<path fill="none" stroke="midnightblue" d="M133.629,-165.219C128.668,-157.707 121.209,-146.411 115.028,-137.052"/>
<polygon fill="midnightblue" stroke="midnightblue" points="117.845,-134.965 109.413,-128.55 112.003,-138.823 117.845,-134.965"/>
</g>
<!-- Node7 -->
<g id="node8" class="node"><title>Node7</title>
<polygon fill="white" stroke="#bfbfbf" points="150.255,-110.5 150.255,-128.5 197.94,-128.5 197.94,-110.5 150.255,-110.5"/>
<text text-anchor="middle" x="174.098" y="-116.5" font-family="Helvetica,sans-Serif" font-size="10.00">stdlib.h</text>
</g>
<!-- Node0&#45;&gt;Node7 -->
<g id="edge10" class="edge"><title>Node0&#45;&gt;Node7</title>
<path fill="none" stroke="midnightblue" d="M144.566,-165.219C149.527,-157.707 156.986,-146.411 163.167,-137.052"/>
<polygon fill="midnightblue" stroke="midnightblue" points="166.192,-138.823 168.782,-128.55 160.35,-134.965 166.192,-138.823"/>
</g>
<!-- Node8 -->
<g id="node9" class="node"><title>Node8</title>
<polygon fill="white" stroke="#bfbfbf" points="215.701,-110.5 215.701,-128.5 264.494,-128.5 264.494,-110.5 215.701,-110.5"/>
<text text-anchor="middle" x="240.098" y="-116.5" font-family="Helvetica,sans-Serif" font-size="10.00">string.h</text>
</g>
<!-- Node0&#45;&gt;Node8 -->
<g id="edge11" class="edge"><title>Node0&#45;&gt;Node8</title>
<path fill="none" stroke="midnightblue" d="M154.437,-165.45C170.677,-156.929 196.547,-143.353 215.612,-133.349"/>
<polygon fill="midnightblue" stroke="midnightblue" points="217.385,-136.371 224.613,-128.625 214.132,-130.173 217.385,-136.371"/>
</g>
<!-- Node9 -->
<g id="node10" class="node"><title>Node9</title>
<polygon fill="white" stroke="#bfbfbf" points="282.312,-110.5 282.312,-128.5 333.883,-128.5 333.883,-110.5 282.312,-110.5"/>
<text text-anchor="middle" x="308.098" y="-116.5" font-family="Helvetica,sans-Serif" font-size="10.00">assert.h</text>
</g>
<!-- Node0&#45;&gt;Node9 -->
<g id="edge12" class="edge"><title>Node0&#45;&gt;Node9</title>
<path fill="none" stroke="midnightblue" d="M164.765,-165.45C193.511,-156.436 240.289,-141.765 272.545,-131.65"/>
<polygon fill="midnightblue" stroke="midnightblue" points="273.972,-134.87 282.466,-128.538 271.877,-128.191 273.972,-134.87"/>
</g>
<!-- Node1&#45;&gt;Node2 -->
<g id="edge2" class="edge"><title>Node1&#45;&gt;Node2</title>
<path fill="none" stroke="midnightblue" d="M40.0975,-55.2188C40.0975,-48.1769 40.0975,-37.8083 40.0975,-28.8277"/>
<polygon fill="midnightblue" stroke="midnightblue" points="43.5976,-28.5495 40.0975,-18.5496 36.5976,-28.5496 43.5976,-28.5495"/>
</g>
<!-- Node3&#45;&gt;Node1 -->
<g id="edge5" class="edge"><title>Node3&#45;&gt;Node1</title>
<path fill="none" stroke="midnightblue" d="M94.3773,-110.45C84.6976,-102.434 69.6185,-89.9471 57.8077,-80.1663"/>
<polygon fill="midnightblue" stroke="midnightblue" points="59.8435,-77.3078 49.9092,-73.6253 55.3788,-82.6992 59.8435,-77.3078"/>
</g>
<!-- Node3&#45;&gt;Node2 -->
<g id="edge4" class="edge"><title>Node3&#45;&gt;Node2</title>
<path fill="none" stroke="midnightblue" d="M113.605,-110.396C126.915,-98.042 148.191,-73.9355 136.098,-55 122.269,-33.3481 94.8994,-22.0724 72.9104,-16.2976"/>
<polygon fill="midnightblue" stroke="midnightblue" points="73.4794,-12.8359 62.9432,-13.9485 71.8736,-19.6493 73.4794,-12.8359"/>
</g>
<!-- Node4 -->
<g id="node5" class="node"><title>Node4</title>
<g id="a_node5"><a xlink:href="stack_8h.html" target="_top" xlink:title="Enthält die Schnittstelle eines generalisierten Stacks. ">
<polygon fill="white" stroke="black" points="183.258,-55.5 183.258,-73.5 230.937,-73.5 230.937,-55.5 183.258,-55.5"/>
<text text-anchor="middle" x="207.098" y="-61.5" font-family="Helvetica,sans-Serif" font-size="10.00">stack.h</text>
</a>
</g>
</g>
<!-- Node3&#45;&gt;Node4 -->
<g id="edge6" class="edge"><title>Node3&#45;&gt;Node4</title>
<path fill="none" stroke="midnightblue" d="M119.741,-110.45C136.378,-101.89 162.926,-88.2291 182.393,-78.2119"/>
<polygon fill="midnightblue" stroke="midnightblue" points="184.016,-81.313 191.307,-73.6253 180.814,-75.0886 184.016,-81.313"/>
</g>
<!-- Node6 -->
<g id="node7" class="node"><title>Node6</title>
<g id="a_node7"><a xlink:href="dict_8h.html" target="_top" xlink:title="Enthält die Schnittstelle für ein assoziatives Array (Wörterbuch). ">
<polygon fill="white" stroke="black" points="87.1468,-55.5 87.1468,-73.5 127.048,-73.5 127.048,-55.5 87.1468,-55.5"/>
<text text-anchor="middle" x="107.098" y="-61.5" font-family="Helvetica,sans-Serif" font-size="10.00">dict.h</text>
</a>
</g>
</g>
<!-- Node3&#45;&gt;Node6 -->
<g id="edge8" class="edge"><title>Node3&#45;&gt;Node6</title>
<path fill="none" stroke="midnightblue" d="M104.566,-110.219C104.965,-103.177 105.552,-92.8083 106.06,-83.8277"/>
<polygon fill="midnightblue" stroke="midnightblue" points="109.571,-83.7314 106.642,-73.5496 102.582,-83.3357 109.571,-83.7314"/>
</g>
<!-- Node5 -->
<g id="node6" class="node"><title>Node5</title>
<polygon fill="white" stroke="#bfbfbf" points="181.307,-0.5 181.307,-18.5 232.888,-18.5 232.888,-0.5 181.307,-0.5"/>
<text text-anchor="middle" x="207.098" y="-6.5" font-family="Helvetica,sans-Serif" font-size="10.00">stddef.h</text>
</g>
<!-- Node4&#45;&gt;Node5 -->
<g id="edge7" class="edge"><title>Node4&#45;&gt;Node5</title>
<path fill="none" stroke="midnightblue" d="M207.098,-55.2188C207.098,-48.1769 207.098,-37.8083 207.098,-28.8277"/>
<polygon fill="midnightblue" stroke="midnightblue" points="210.598,-28.5495 207.098,-18.5496 203.598,-28.5496 210.598,-28.5495"/>
</g>
</g>
</svg>
