<?xml version="1.0" encoding="UTF-8" standalone="no"?>
<!DOCTYPE svg PUBLIC "-//W3C//DTD SVG 1.1//EN"
 "http://www.w3.org/Graphics/SVG/1.1/DTD/svg11.dtd">
<!-- Generated by graphviz version 2.38.0 (20140413.2041)
 -->
<!-- Title: syntree.h Pages: 1 -->
<svg width="138pt" height="137pt"
 viewBox="0.00 0.00 138.29 137.00" xmlns="http://www.w3.org/2000/svg" xmlns:xlink="http://www.w3.org/1999/xlink">
<g id="graph0" class="graph" transform="scale(1 1) rotate(0) translate(4 133)">
<title>syntree.h</title>
<polygon fill="white" stroke="none" points="-4,4 -4,-133 134.291,-133 134.291,4 -4,4"/>
<!-- Node2 -->
<g id="node1" class="node"><title>Node2</title>
<polygon fill="#bfbfbf" stroke="black" points="45.4385,-110.5 45.4385,-128.5 102.571,-128.5 102.571,-110.5 45.4385,-110.5"/>
<text text-anchor="middle" x="74.0049" y="-116.5" font-family="Helvetica,sans-Serif" font-size="10.00">syntree.h</text>
</g>
<!-- Node3 -->
<g id="node2" class="node"><title>Node3</title>
<g id="a_node2"><a xlink:href="symtab_8h.html" target="_top" xlink:title="Enthält eine Datenstruktur für die Verwaltung von Symbolen in einer Tabelle mit geschichteten Sichtba...">
<polygon fill="white" stroke="black" points="17.7192,-55.5 17.7192,-73.5 74.2905,-73.5 74.2905,-55.5 17.7192,-55.5"/>
<text text-anchor="middle" x="46.0049" y="-61.5" font-family="Helvetica,sans-Serif" font-size="10.00">symtab.h</text>
</a>
</g>
</g>
<!-- Node2&#45;&gt;Node3 -->
<g id="edge1" class="edge"><title>Node2&#45;&gt;Node3</title>
<path fill="none" stroke="midnightblue" d="M64.9515,-101.363C60.0177,-92.0242 54.1432,-80.9046 50.2575,-73.5496"/>
<polygon fill="midnightblue" stroke="midnightblue" points="61.8639,-103.012 69.6299,-110.219 68.0533,-99.7419 61.8639,-103.012"/>
</g>
<!-- Node5 -->
<g id="node4" class="node"><title>Node5</title>
<g id="a_node4"><a xlink:href="syntree_8c.html" target="_top" xlink:title="Implementation des Syntaxbaumes. ">
<polygon fill="white" stroke="black" points="73.7192,-0.5 73.7192,-18.5 130.291,-18.5 130.291,-0.5 73.7192,-0.5"/>
<text text-anchor="middle" x="102.005" y="-6.5" font-family="Helvetica,sans-Serif" font-size="10.00">syntree.c</text>
</a>
</g>
</g>
<!-- Node2&#45;&gt;Node5 -->
<g id="edge4" class="edge"><title>Node2&#45;&gt;Node5</title>
<path fill="none" stroke="midnightblue" d="M78.6544,-100.566C84.8001,-76.8614 95.3743,-36.0752 99.8759,-18.7118"/>
<polygon fill="midnightblue" stroke="midnightblue" points="75.2311,-99.8241 76.1094,-110.382 82.0071,-101.581 75.2311,-99.8241"/>
</g>
<!-- Node4 -->
<g id="node3" class="node"><title>Node4</title>
<g id="a_node3"><a xlink:href="symtab_8c.html" target="_top" xlink:title="Implementation der Symboltabelle. ">
<polygon fill="white" stroke="black" points="0,-0.5 0,-18.5 56.0098,-18.5 56.0098,-0.5 0,-0.5"/>
<text text-anchor="middle" x="28.0049" y="-6.5" font-family="Helvetica,sans-Serif" font-size="10.00">symtab.c</text>
</a>
</g>
</g>
<!-- Node3&#45;&gt;Node4 -->
<g id="edge2" class="edge"><title>Node3&#45;&gt;Node4</title>
<path fill="none" stroke="midnightblue" d="M39.8826,-45.4734C36.7759,-36.3257 33.1578,-25.6724 30.7387,-18.5496"/>
<polygon fill="midnightblue" stroke="midnightblue" points="36.6624,-46.8755 43.1924,-55.2188 43.2906,-44.6244 36.6624,-46.8755"/>
</g>
<!-- Node3&#45;&gt;Node5 -->
<g id="edge3" class="edge"><title>Node3&#45;&gt;Node5</title>
<path fill="none" stroke="midnightblue" d="M62.2659,-48.1101C72.4794,-38.4438 85.2375,-26.3692 93.4997,-18.5496"/>
<polygon fill="midnightblue" stroke="midnightblue" points="59.612,-45.8028 54.7549,-55.2188 64.4237,-50.8869 59.612,-45.8028"/>
</g>
</g>
</svg>
