<?xml version="1.0" encoding="UTF-8" standalone="no"?>
<!DOCTYPE svg PUBLIC "-//W3C//DTD SVG 1.1//EN"
 "http://www.w3.org/Graphics/SVG/1.1/DTD/svg11.dtd">
<!-- Generated by graphviz version 2.30.0 (20130114.0426)
 -->
<!-- Title: dict.c Pages: 1 -->
<svg width="377pt" height="88pt"
 viewBox="0.00 0.00 377.00 88.00" xmlns="http://www.w3.org/2000/svg" xmlns:xlink="http://www.w3.org/1999/xlink">
<g id="graph0" class="graph" transform="scale(1 1) rotate(0) translate(4 84)">
<title>dict.c</title>
<polygon fill="white" stroke="white" points="-4,5 -4,-84 374,-84 374,5 -4,5"/>
<!-- Node1 -->
<g id="node1" class="node"><title>Node1</title>
<polygon fill="#bfbfbf" stroke="black" points="158.33,-59 158.33,-79 197.67,-79 197.67,-59 158.33,-59"/>
<text text-anchor="middle" x="178" y="-65" font-family="Helvetica,sans-Serif" font-size="10.00">dict.c</text>
</g>
<!-- Node2 -->
<g id="node2" class="node"><title>Node2</title>
<g id="a_node2"><a xlink:href="dict_8h.html" target="_top" xlink:title="Enthält die Schnittstelle für ein assoziatives Array (Wörterbuch).">
<polygon fill="white" stroke="black" points="-0.950684,-1 -0.950684,-21 38.9507,-21 38.9507,-1 -0.950684,-1"/>
<text text-anchor="middle" x="19" y="-7" font-family="Helvetica,sans-Serif" font-size="10.00">dict.h</text>
</a>
</g>
</g>
<!-- Node1&#45;&gt;Node2 -->
<g id="edge1" class="edge"><title>Node1&#45;&gt;Node2</title>
<path fill="none" stroke="midnightblue" d="M158.184,-61.0208C130.691,-51.3377 80.7555,-33.7504 48.769,-22.4847"/>
<polygon fill="midnightblue" stroke="midnightblue" points="49.6605,-19.088 39.0657,-19.0672 47.3351,-25.6905 49.6605,-19.088"/>
</g>
<!-- Node3 -->
<g id="node3" class="node"><title>Node3</title>
<polygon fill="white" stroke="#bfbfbf" points="57.2686,-1 57.2686,-21 102.731,-21 102.731,-1 57.2686,-1"/>
<text text-anchor="middle" x="80" y="-7" font-family="Helvetica,sans-Serif" font-size="10.00">stdio.h</text>
</g>
<!-- Node1&#45;&gt;Node3 -->
<g id="edge2" class="edge"><title>Node1&#45;&gt;Node3</title>
<path fill="none" stroke="midnightblue" d="M161.817,-58.7527C146.262,-49.8641 122.541,-36.3092 104.639,-26.0793"/>
<polygon fill="midnightblue" stroke="midnightblue" points="106.301,-22.9978 95.8816,-21.0752 102.828,-29.0755 106.301,-22.9978"/>
</g>
<!-- Node4 -->
<g id="node4" class="node"><title>Node4</title>
<polygon fill="white" stroke="#bfbfbf" points="121.158,-1 121.158,-21 168.842,-21 168.842,-1 121.158,-1"/>
<text text-anchor="middle" x="145" y="-7" font-family="Helvetica,sans-Serif" font-size="10.00">stdlib.h</text>
</g>
<!-- Node1&#45;&gt;Node4 -->
<g id="edge3" class="edge"><title>Node1&#45;&gt;Node4</title>
<path fill="none" stroke="midnightblue" d="M172.551,-58.7527C167.937,-50.9242 161.191,-39.4761 155.529,-29.8679"/>
<polygon fill="midnightblue" stroke="midnightblue" points="158.44,-27.9136 150.348,-21.0752 152.409,-31.4675 158.44,-27.9136"/>
</g>
<!-- Node5 -->
<g id="node5" class="node"><title>Node5</title>
<polygon fill="white" stroke="#bfbfbf" points="186.604,-1 186.604,-21 235.396,-21 235.396,-1 186.604,-1"/>
<text text-anchor="middle" x="211" y="-7" font-family="Helvetica,sans-Serif" font-size="10.00">string.h</text>
</g>
<!-- Node1&#45;&gt;Node5 -->
<g id="edge4" class="edge"><title>Node1&#45;&gt;Node5</title>
<path fill="none" stroke="midnightblue" d="M183.449,-58.7527C188.063,-50.9242 194.809,-39.4761 200.471,-29.8679"/>
<polygon fill="midnightblue" stroke="midnightblue" points="203.591,-31.4675 205.652,-21.0752 197.56,-27.9136 203.591,-31.4675"/>
</g>
<!-- Node6 -->
<g id="node6" class="node"><title>Node6</title>
<polygon fill="white" stroke="#bfbfbf" points="253.443,-1 253.443,-21 300.557,-21 300.557,-1 253.443,-1"/>
<text text-anchor="middle" x="277" y="-7" font-family="Helvetica,sans-Serif" font-size="10.00">limits.h</text>
</g>
<!-- Node1&#45;&gt;Node6 -->
<g id="edge5" class="edge"><title>Node1&#45;&gt;Node6</title>
<path fill="none" stroke="midnightblue" d="M194.348,-58.7527C210.062,-49.8641 234.025,-36.3092 252.11,-26.0793"/>
<polygon fill="midnightblue" stroke="midnightblue" points="253.976,-29.0451 260.956,-21.0752 250.529,-22.9523 253.976,-29.0451"/>
</g>
<!-- Node7 -->
<g id="node7" class="node"><title>Node7</title>
<polygon fill="white" stroke="#bfbfbf" points="318.214,-1 318.214,-21 369.786,-21 369.786,-1 318.214,-1"/>
<text text-anchor="middle" x="344" y="-7" font-family="Helvetica,sans-Serif" font-size="10.00">assert.h</text>
</g>
<!-- Node1&#45;&gt;Node7 -->
<g id="edge6" class="edge"><title>Node1&#45;&gt;Node7</title>
<path fill="none" stroke="midnightblue" d="M197.694,-61.3562C224.974,-52.1533 274.718,-35.3723 308.552,-23.9584"/>
<polygon fill="midnightblue" stroke="midnightblue" points="309.713,-27.2605 318.07,-20.7476 307.475,-20.6278 309.713,-27.2605"/>
</g>
</g>
</svg>
