<?xml version="1.0" encoding="UTF-8" standalone="no"?>
<!DOCTYPE svg PUBLIC "-//W3C//DTD SVG 1.1//EN"
 "http://www.w3.org/Graphics/SVG/1.1/DTD/svg11.dtd">
<!-- Generated by graphviz version 2.30.0 (20130114.0426)
 -->
<!-- Title: dict.h Pages: 1 -->
<svg width="212pt" height="146pt"
 viewBox="0.00 0.00 212.00 146.00" xmlns="http://www.w3.org/2000/svg" xmlns:xlink="http://www.w3.org/1999/xlink">
<g id="graph0" class="graph" transform="scale(1 1) rotate(0) translate(4 142)">
<title>dict.h</title>
<polygon fill="white" stroke="white" points="-4,5 -4,-142 209,-142 209,5 -4,5"/>
<!-- Node1 -->
<g id="node1" class="node"><title>Node1</title>
<polygon fill="#bfbfbf" stroke="black" points="49.0493,-117 49.0493,-137 88.9507,-137 88.9507,-117 49.0493,-117"/>
<text text-anchor="middle" x="69" y="-123" font-family="Helvetica,sans-Serif" font-size="10.00">dict.h</text>
</g>
<!-- Node2 -->
<g id="node2" class="node"><title>Node2</title>
<g id="a_node2"><a xlink:href="dict_8c.html" target="_top" xlink:title="Implementation des assoziativen Arrays.">
<polygon fill="white" stroke="black" points="16.3301,-59 16.3301,-79 55.6699,-79 55.6699,-59 16.3301,-59"/>
<text text-anchor="middle" x="36" y="-65" font-family="Helvetica,sans-Serif" font-size="10.00">dict.c</text>
</a>
</g>
</g>
<!-- Node1&#45;&gt;Node2 -->
<g id="edge1" class="edge"><title>Node1&#45;&gt;Node2</title>
<path fill="none" stroke="midnightblue" d="M58.3457,-107.92C52.6679,-98.2849 45.9296,-86.8502 41.3479,-79.0752"/>
<polygon fill="midnightblue" stroke="midnightblue" points="55.4584,-109.914 63.5507,-116.753 61.4891,-106.36 55.4584,-109.914"/>
</g>
<!-- Node3 -->
<g id="node3" class="node"><title>Node3</title>
<g id="a_node3"><a xlink:href="symtab_8h.html" target="_top" xlink:title="Enthält eine Datenstruktur für die Verwaltung von Symbolen in einer Tabelle mit geschichteten Sichtba...">
<polygon fill="white" stroke="black" points="73.7144,-59 73.7144,-79 130.286,-79 130.286,-59 73.7144,-59"/>
<text text-anchor="middle" x="102" y="-65" font-family="Helvetica,sans-Serif" font-size="10.00">symtab.h</text>
</a>
</g>
</g>
<!-- Node1&#45;&gt;Node3 -->
<g id="edge2" class="edge"><title>Node1&#45;&gt;Node3</title>
<path fill="none" stroke="midnightblue" d="M79.6543,-107.92C85.3321,-98.2849 92.0704,-86.8502 96.6521,-79.0752"/>
<polygon fill="midnightblue" stroke="midnightblue" points="76.5109,-106.36 74.4493,-116.753 82.5416,-109.914 76.5109,-106.36"/>
</g>
<!-- Node4 -->
<g id="node4" class="node"><title>Node4</title>
<g id="a_node4"><a xlink:href="minako_8c.html" target="_top" xlink:title="Enthält den Interpreter sowie den Einstiegspunkt in das Programm.">
<polygon fill="white" stroke="black" points="-0.00732422,-1 -0.00732422,-21 56.0073,-21 56.0073,-1 -0.00732422,-1"/>
<text text-anchor="middle" x="28" y="-7" font-family="Helvetica,sans-Serif" font-size="10.00">minako.c</text>
</a>
</g>
</g>
<!-- Node3&#45;&gt;Node4 -->
<g id="edge3" class="edge"><title>Node3&#45;&gt;Node4</title>
<path fill="none" stroke="midnightblue" d="M81.6206,-52.5778C68.2522,-42.4611 51.2295,-29.5791 39.9922,-21.0752"/>
<polygon fill="midnightblue" stroke="midnightblue" points="79.6943,-55.5092 89.7804,-58.7527 83.9184,-49.9273 79.6943,-55.5092"/>
</g>
<!-- Node5 -->
<g id="node5" class="node"><title>Node5</title>
<g id="a_node5"><a xlink:href="symtab_8c.html" target="_top" xlink:title="Implementation der Symboltabelle.">
<polygon fill="white" stroke="black" points="73.9951,-1 73.9951,-21 130.005,-21 130.005,-1 73.9951,-1"/>
<text text-anchor="middle" x="102" y="-7" font-family="Helvetica,sans-Serif" font-size="10.00">symtab.c</text>
</a>
</g>
</g>
<!-- Node3&#45;&gt;Node5 -->
<g id="edge4" class="edge"><title>Node3&#45;&gt;Node5</title>
<path fill="none" stroke="midnightblue" d="M102,-48.7065C102,-39.3384 102,-28.5262 102,-21.0752"/>
<polygon fill="midnightblue" stroke="midnightblue" points="98.5001,-48.7527 102,-58.7527 105.5,-48.7528 98.5001,-48.7527"/>
</g>
<!-- Node6 -->
<g id="node6" class="node"><title>Node6</title>
<g id="a_node6"><a xlink:href="syntree_8c.html" target="_top" xlink:title="Implementation des Syntaxbaumes.">
<polygon fill="white" stroke="black" points="147.714,-1 147.714,-21 204.286,-21 204.286,-1 147.714,-1"/>
<text text-anchor="middle" x="176" y="-7" font-family="Helvetica,sans-Serif" font-size="10.00">syntree.c</text>
</a>
</g>
</g>
<!-- Node3&#45;&gt;Node6 -->
<g id="edge5" class="edge"><title>Node3&#45;&gt;Node6</title>
<path fill="none" stroke="midnightblue" d="M122.379,-52.5778C135.748,-42.4611 152.77,-29.5791 164.008,-21.0752"/>
<polygon fill="midnightblue" stroke="midnightblue" points="120.082,-49.9273 114.22,-58.7527 124.306,-55.5092 120.082,-49.9273"/>
</g>
</g>
</svg>
