<?xml version="1.0" encoding="UTF-8" standalone="no"?>
<!DOCTYPE svg PUBLIC "-//W3C//DTD SVG 1.1//EN"
 "http://www.w3.org/Graphics/SVG/1.1/DTD/svg11.dtd">
<!-- Generated by graphviz version 2.30.0 (20130114.0426)
 -->
<!-- Title: minako.c Pages: 1 -->
<svg width="524pt" height="204pt"
 viewBox="0.00 0.00 523.87 204.00" xmlns="http://www.w3.org/2000/svg" xmlns:xlink="http://www.w3.org/1999/xlink">
<g id="graph0" class="graph" transform="scale(1 1) rotate(0) translate(4 200)">
<title>minako.c</title>
<polygon fill="white" stroke="white" points="-4,5 -4,-200 520.867,-200 520.867,5 -4,5"/>
<!-- Node1 -->
<g id="node1" class="node"><title>Node1</title>
<polygon fill="#bfbfbf" stroke="black" points="145.86,-175 145.86,-195 201.875,-195 201.875,-175 145.86,-175"/>
<text text-anchor="middle" x="173.867" y="-181" font-family="Helvetica,sans-Serif" font-size="10.00">minako.c</text>
</g>
<!-- Node2 -->
<g id="node2" class="node"><title>Node2</title>
<polygon fill="white" stroke="#bfbfbf" points="302.136,-1 302.136,-21 347.599,-21 347.599,-1 302.136,-1"/>
<text text-anchor="middle" x="324.867" y="-7" font-family="Helvetica,sans-Serif" font-size="10.00">stdio.h</text>
</g>
<!-- Node1&#45;&gt;Node2 -->
<g id="edge1" class="edge"><title>Node1&#45;&gt;Node2</title>
<path fill="none" stroke="midnightblue" d="M145.576,-182.785C89.0748,-179.281 -29.3334,-165.927 6.86727,-116 73.7258,-23.7912 224.729,-11.8225 291.75,-11.271"/>
<polygon fill="midnightblue" stroke="midnightblue" points="292.133,-14.771 302.134,-11.2732 292.134,-7.77098 292.133,-14.771"/>
</g>
<!-- Node3 -->
<g id="node3" class="node"><title>Node3</title>
<polygon fill="white" stroke="#bfbfbf" points="16.025,-117 16.025,-137 63.7096,-137 63.7096,-117 16.025,-117"/>
<text text-anchor="middle" x="39.8673" y="-123" font-family="Helvetica,sans-Serif" font-size="10.00">stdlib.h</text>
</g>
<!-- Node1&#45;&gt;Node3 -->
<g id="edge2" class="edge"><title>Node1&#45;&gt;Node3</title>
<path fill="none" stroke="midnightblue" d="M152.04,-174.878C130.042,-165.685 95.8828,-151.409 71.0373,-141.026"/>
<polygon fill="midnightblue" stroke="midnightblue" points="72.2619,-137.745 61.6856,-137.118 69.5627,-144.203 72.2619,-137.745"/>
</g>
<!-- Node4 -->
<g id="node4" class="node"><title>Node4</title>
<polygon fill="white" stroke="#bfbfbf" points="81.4708,-117 81.4708,-137 130.264,-137 130.264,-117 81.4708,-117"/>
<text text-anchor="middle" x="105.867" y="-123" font-family="Helvetica,sans-Serif" font-size="10.00">string.h</text>
</g>
<!-- Node1&#45;&gt;Node4 -->
<g id="edge3" class="edge"><title>Node1&#45;&gt;Node4</title>
<path fill="none" stroke="midnightblue" d="M162.638,-174.753C152.34,-166.272 136.884,-153.543 124.698,-143.507"/>
<polygon fill="midnightblue" stroke="midnightblue" points="126.831,-140.731 116.887,-137.075 122.381,-146.134 126.831,-140.731"/>
</g>
<!-- Node5 -->
<g id="node5" class="node"><title>Node5</title>
<polygon fill="white" stroke="#bfbfbf" points="148.082,-117 148.082,-137 199.653,-137 199.653,-117 148.082,-117"/>
<text text-anchor="middle" x="173.867" y="-123" font-family="Helvetica,sans-Serif" font-size="10.00">assert.h</text>
</g>
<!-- Node1&#45;&gt;Node5 -->
<g id="edge4" class="edge"><title>Node1&#45;&gt;Node5</title>
<path fill="none" stroke="midnightblue" d="M173.867,-174.753C173.867,-167.25 173.867,-156.424 173.867,-147.078"/>
<polygon fill="midnightblue" stroke="midnightblue" points="177.367,-147.075 173.867,-137.075 170.367,-147.075 177.367,-147.075"/>
</g>
<!-- Node6 -->
<g id="node6" class="node"><title>Node6</title>
<polygon fill="white" stroke="#bfbfbf" points="218.124,-117 218.124,-137 323.611,-137 323.611,-117 218.124,-117"/>
<text text-anchor="middle" x="270.867" y="-123" font-family="Helvetica,sans-Serif" font-size="10.00">minako&#45;syntax.tab.h</text>
</g>
<!-- Node1&#45;&gt;Node6 -->
<g id="edge5" class="edge"><title>Node1&#45;&gt;Node6</title>
<path fill="none" stroke="midnightblue" d="M189.885,-174.753C205.281,-165.864 228.76,-152.309 246.48,-142.079"/>
<polygon fill="midnightblue" stroke="midnightblue" points="248.237,-145.106 255.148,-137.075 244.737,-139.044 248.237,-145.106"/>
</g>
<!-- Node7 -->
<g id="node7" class="node"><title>Node7</title>
<g id="a_node7"><a xlink:href="symtab_8h.html" target="_top" xlink:title="Enthält eine Datenstruktur für die Verwaltung von Symbolen in einer Tabelle mit geschichteten Sichtba...">
<polygon fill="white" stroke="black" points="379.582,-117 379.582,-137 436.153,-137 436.153,-117 379.582,-117"/>
<text text-anchor="middle" x="407.867" y="-123" font-family="Helvetica,sans-Serif" font-size="10.00">symtab.h</text>
</a>
</g>
</g>
<!-- Node1&#45;&gt;Node7 -->
<g id="edge6" class="edge"><title>Node1&#45;&gt;Node7</title>
<path fill="none" stroke="midnightblue" d="M202.093,-177.245C243.994,-167.217 322.747,-148.371 369.738,-137.125"/>
<polygon fill="midnightblue" stroke="midnightblue" points="370.631,-140.51 379.541,-134.779 369.001,-133.702 370.631,-140.51"/>
</g>
<!-- Node8 -->
<g id="node8" class="node"><title>Node8</title>
<g id="a_node8"><a xlink:href="syntree_8h.html" target="_top" xlink:title="Enthält eine Datenstruktur für abstrakte Syntaxbäume.">
<polygon fill="white" stroke="black" points="296.301,-59 296.301,-79 353.434,-79 353.434,-59 296.301,-59"/>
<text text-anchor="middle" x="324.867" y="-65" font-family="Helvetica,sans-Serif" font-size="10.00">syntree.h</text>
</a>
</g>
</g>
<!-- Node1&#45;&gt;Node8 -->
<g id="edge13" class="edge"><title>Node1&#45;&gt;Node8</title>
<path fill="none" stroke="midnightblue" d="M201.929,-179.904C242.988,-173.272 316.263,-158.795 331.867,-138 342.299,-124.098 338.504,-103.847 333.346,-89.0615"/>
<polygon fill="midnightblue" stroke="midnightblue" points="336.469,-87.4397 329.534,-79.4301 329.96,-90.0163 336.469,-87.4397"/>
</g>
<!-- Node7&#45;&gt;Node2 -->
<g id="edge7" class="edge"><title>Node7&#45;&gt;Node2</title>
<path fill="none" stroke="midnightblue" d="M401.856,-116.593C393.29,-103.312 376.938,-78.4088 361.867,-58 354.653,-48.2301 346.189,-37.6487 339.179,-29.1004"/>
<polygon fill="midnightblue" stroke="midnightblue" points="341.825,-26.8081 332.753,-21.3352 336.432,-31.2709 341.825,-26.8081"/>
</g>
<!-- Node7&#45;&gt;Node8 -->
<g id="edge8" class="edge"><title>Node7&#45;&gt;Node8</title>
<path fill="none" stroke="midnightblue" d="M394.162,-116.753C381.35,-108.109 361.998,-95.0518 346.998,-84.9314"/>
<polygon fill="midnightblue" stroke="midnightblue" points="348.565,-81.7669 338.318,-79.0752 344.65,-87.5696 348.565,-81.7669"/>
</g>
<!-- Node9 -->
<g id="node9" class="node"><title>Node9</title>
<g id="a_node9"><a xlink:href="stack_8h.html" target="_top" xlink:title="Enthält die Schnittstelle eines generalisierten Stacks.">
<polygon fill="white" stroke="black" points="410.027,-59 410.027,-79 457.707,-79 457.707,-59 410.027,-59"/>
<text text-anchor="middle" x="433.867" y="-65" font-family="Helvetica,sans-Serif" font-size="10.00">stack.h</text>
</a>
</g>
</g>
<!-- Node7&#45;&gt;Node9 -->
<g id="edge10" class="edge"><title>Node7&#45;&gt;Node9</title>
<path fill="none" stroke="midnightblue" d="M412.161,-116.753C415.757,-109.006 421,-97.7142 425.432,-88.1688"/>
<polygon fill="midnightblue" stroke="midnightblue" points="428.617,-89.6192 429.654,-79.0752 422.268,-86.6714 428.617,-89.6192"/>
</g>
<!-- Node11 -->
<g id="node11" class="node"><title>Node11</title>
<g id="a_node11"><a xlink:href="dict_8h.html" target="_top" xlink:title="Enthält die Schnittstelle für ein assoziatives Array (Wörterbuch).">
<polygon fill="white" stroke="black" points="475.917,-59 475.917,-79 515.818,-79 515.818,-59 475.917,-59"/>
<text text-anchor="middle" x="495.867" y="-65" font-family="Helvetica,sans-Serif" font-size="10.00">dict.h</text>
</a>
</g>
</g>
<!-- Node7&#45;&gt;Node11 -->
<g id="edge12" class="edge"><title>Node7&#45;&gt;Node11</title>
<path fill="none" stroke="midnightblue" d="M422.399,-116.753C436.11,-108.027 456.888,-94.8051 472.853,-84.6458"/>
<polygon fill="midnightblue" stroke="midnightblue" points="475.049,-87.3968 481.606,-79.0752 471.291,-81.4912 475.049,-87.3968"/>
</g>
<!-- Node8&#45;&gt;Node2 -->
<g id="edge9" class="edge"><title>Node8&#45;&gt;Node2</title>
<path fill="none" stroke="midnightblue" d="M324.867,-58.7527C324.867,-51.2504 324.867,-40.4238 324.867,-31.0781"/>
<polygon fill="midnightblue" stroke="midnightblue" points="328.367,-31.0752 324.867,-21.0752 321.367,-31.0752 328.367,-31.0752"/>
</g>
<!-- Node10 -->
<g id="node10" class="node"><title>Node10</title>
<polygon fill="white" stroke="#bfbfbf" points="408.077,-1 408.077,-21 459.658,-21 459.658,-1 408.077,-1"/>
<text text-anchor="middle" x="433.867" y="-7" font-family="Helvetica,sans-Serif" font-size="10.00">stddef.h</text>
</g>
<!-- Node9&#45;&gt;Node10 -->
<g id="edge11" class="edge"><title>Node9&#45;&gt;Node10</title>
<path fill="none" stroke="midnightblue" d="M433.867,-58.7527C433.867,-51.2504 433.867,-40.4238 433.867,-31.0781"/>
<polygon fill="midnightblue" stroke="midnightblue" points="437.367,-31.0752 433.867,-21.0752 430.367,-31.0752 437.367,-31.0752"/>
</g>
</g>
</svg>
