<?xml version="1.0" encoding="UTF-8" standalone="no"?>
<!DOCTYPE svg PUBLIC "-//W3C//DTD SVG 1.1//EN"
 "http://www.w3.org/Graphics/SVG/1.1/DTD/svg11.dtd">
<!-- Generated by graphviz version 2.30.0 (20130114.0426)
 -->
<!-- Title: stack.c Pages: 1 -->
<svg width="256pt" height="146pt"
 viewBox="0.00 0.00 256.00 146.00" xmlns="http://www.w3.org/2000/svg" xmlns:xlink="http://www.w3.org/1999/xlink">
<g id="graph0" class="graph" transform="scale(1 1) rotate(0) translate(4 142)">
<title>stack.c</title>
<polygon fill="white" stroke="white" points="-4,5 -4,-142 253,-142 253,5 -4,5"/>
<!-- Node1 -->
<g id="node1" class="node"><title>Node1</title>
<polygon fill="#bfbfbf" stroke="black" points="98.4409,-117 98.4409,-137 145.559,-137 145.559,-117 98.4409,-117"/>
<text text-anchor="middle" x="122" y="-123" font-family="Helvetica,sans-Serif" font-size="10.00">stack.c</text>
</g>
<!-- Node2 -->
<g id="node2" class="node"><title>Node2</title>
<g id="a_node2"><a xlink:href="stack_8h.html" target="_top" xlink:title="Enthält die Schnittstelle eines generalisierten Stacks.">
<polygon fill="white" stroke="black" points="1.16016,-59 1.16016,-79 48.8398,-79 48.8398,-59 1.16016,-59"/>
<text text-anchor="middle" x="25" y="-65" font-family="Helvetica,sans-Serif" font-size="10.00">stack.h</text>
</a>
</g>
</g>
<!-- Node1&#45;&gt;Node2 -->
<g id="edge1" class="edge"><title>Node1&#45;&gt;Node2</title>
<path fill="none" stroke="midnightblue" d="M105.982,-116.753C90.586,-107.864 67.107,-94.3092 49.3874,-84.0793"/>
<polygon fill="midnightblue" stroke="midnightblue" points="51.1299,-81.0439 40.7195,-79.0752 47.63,-87.1062 51.1299,-81.0439"/>
</g>
<!-- Node4 -->
<g id="node4" class="node"><title>Node4</title>
<polygon fill="white" stroke="#bfbfbf" points="67.2686,-59 67.2686,-79 112.731,-79 112.731,-59 67.2686,-59"/>
<text text-anchor="middle" x="90" y="-65" font-family="Helvetica,sans-Serif" font-size="10.00">stdio.h</text>
</g>
<!-- Node1&#45;&gt;Node4 -->
<g id="edge3" class="edge"><title>Node1&#45;&gt;Node4</title>
<path fill="none" stroke="midnightblue" d="M116.716,-116.753C112.242,-108.924 105.701,-97.4761 100.21,-87.8679"/>
<polygon fill="midnightblue" stroke="midnightblue" points="103.186,-86.0211 95.1858,-79.0752 97.1084,-89.4941 103.186,-86.0211"/>
</g>
<!-- Node5 -->
<g id="node5" class="node"><title>Node5</title>
<polygon fill="white" stroke="#bfbfbf" points="131.158,-59 131.158,-79 178.842,-79 178.842,-59 131.158,-59"/>
<text text-anchor="middle" x="155" y="-65" font-family="Helvetica,sans-Serif" font-size="10.00">stdlib.h</text>
</g>
<!-- Node1&#45;&gt;Node5 -->
<g id="edge4" class="edge"><title>Node1&#45;&gt;Node5</title>
<path fill="none" stroke="midnightblue" d="M127.449,-116.753C132.063,-108.924 138.809,-97.4761 144.471,-87.8679"/>
<polygon fill="midnightblue" stroke="midnightblue" points="147.591,-89.4675 149.652,-79.0752 141.56,-85.9136 147.591,-89.4675"/>
</g>
<!-- Node6 -->
<g id="node6" class="node"><title>Node6</title>
<polygon fill="white" stroke="#bfbfbf" points="197.214,-59 197.214,-79 248.786,-79 248.786,-59 197.214,-59"/>
<text text-anchor="middle" x="223" y="-65" font-family="Helvetica,sans-Serif" font-size="10.00">assert.h</text>
</g>
<!-- Node1&#45;&gt;Node6 -->
<g id="edge5" class="edge"><title>Node1&#45;&gt;Node6</title>
<path fill="none" stroke="midnightblue" d="M138.678,-116.753C154.783,-107.823 179.381,-94.1848 197.86,-83.9388"/>
<polygon fill="midnightblue" stroke="midnightblue" points="199.584,-86.9853 206.632,-79.0752 196.189,-80.8633 199.584,-86.9853"/>
</g>
<!-- Node3 -->
<g id="node3" class="node"><title>Node3</title>
<polygon fill="white" stroke="#bfbfbf" points="-0.790527,-1 -0.790527,-21 50.7905,-21 50.7905,-1 -0.790527,-1"/>
<text text-anchor="middle" x="25" y="-7" font-family="Helvetica,sans-Serif" font-size="10.00">stddef.h</text>
</g>
<!-- Node2&#45;&gt;Node3 -->
<g id="edge2" class="edge"><title>Node2&#45;&gt;Node3</title>
<path fill="none" stroke="midnightblue" d="M25,-58.7527C25,-51.2504 25,-40.4238 25,-31.0781"/>
<polygon fill="midnightblue" stroke="midnightblue" points="28.5001,-31.0752 25,-21.0752 21.5001,-31.0752 28.5001,-31.0752"/>
</g>
</g>
</svg>
