<?xml version="1.0" encoding="UTF-8" standalone="no"?>
<!DOCTYPE svg PUBLIC "-//W3C//DTD SVG 1.1//EN"
 "http://www.w3.org/Graphics/SVG/1.1/DTD/svg11.dtd">
<!-- Generated by graphviz version 2.30.0 (20130114.0426)
 -->
<!-- Title: symtab.h Pages: 1 -->
<svg width="210pt" height="146pt"
 viewBox="0.00 0.00 210.00 146.00" xmlns="http://www.w3.org/2000/svg" xmlns:xlink="http://www.w3.org/1999/xlink">
<g id="graph0" class="graph" transform="scale(1 1) rotate(0) translate(4 142)">
<title>symtab.h</title>
<polygon fill="white" stroke="white" points="-4,5 -4,-142 207,-142 207,5 -4,5"/>
<!-- Node1 -->
<g id="node1" class="node"><title>Node1</title>
<polygon fill="#bfbfbf" stroke="black" points="57.7144,-117 57.7144,-137 114.286,-137 114.286,-117 57.7144,-117"/>
<text text-anchor="middle" x="86" y="-123" font-family="Helvetica,sans-Serif" font-size="10.00">symtab.h</text>
</g>
<!-- Node2 -->
<g id="node2" class="node"><title>Node2</title>
<polygon fill="white" stroke="#bfbfbf" points="-0.731445,-1 -0.731445,-21 44.7314,-21 44.7314,-1 -0.731445,-1"/>
<text text-anchor="middle" x="22" y="-7" font-family="Helvetica,sans-Serif" font-size="10.00">stdio.h</text>
</g>
<!-- Node1&#45;&gt;Node2 -->
<g id="edge1" class="edge"><title>Node1&#45;&gt;Node2</title>
<path fill="none" stroke="midnightblue" d="M59.4059,-116.911C42.8305,-109.705 22.8432,-97.837 13,-80 4.57358,-64.7303 8.73388,-44.6768 13.8374,-30.3103"/>
<polygon fill="midnightblue" stroke="midnightblue" points="17.0955,-31.589 17.5538,-21.0041 10.5946,-28.9929 17.0955,-31.589"/>
</g>
<!-- Node3 -->
<g id="node3" class="node"><title>Node3</title>
<g id="a_node3"><a xlink:href="syntree_8h.html" target="_top" xlink:title="Enthält eine Datenstruktur für abstrakte Syntaxbäume.">
<polygon fill="white" stroke="black" points="22.4336,-59 22.4336,-79 79.5664,-79 79.5664,-59 22.4336,-59"/>
<text text-anchor="middle" x="51" y="-65" font-family="Helvetica,sans-Serif" font-size="10.00">syntree.h</text>
</a>
</g>
</g>
<!-- Node1&#45;&gt;Node3 -->
<g id="edge2" class="edge"><title>Node1&#45;&gt;Node3</title>
<path fill="none" stroke="midnightblue" d="M80.2205,-116.753C75.2767,-108.843 68.0233,-97.2372 61.9802,-87.5683"/>
<polygon fill="midnightblue" stroke="midnightblue" points="64.94,-85.7002 56.672,-79.0752 59.004,-89.4102 64.94,-85.7002"/>
</g>
<!-- Node4 -->
<g id="node4" class="node"><title>Node4</title>
<g id="a_node4"><a xlink:href="stack_8h.html" target="_top" xlink:title="Enthält die Schnittstelle eines generalisierten Stacks.">
<polygon fill="white" stroke="black" points="97.1602,-59 97.1602,-79 144.84,-79 144.84,-59 97.1602,-59"/>
<text text-anchor="middle" x="121" y="-65" font-family="Helvetica,sans-Serif" font-size="10.00">stack.h</text>
</a>
</g>
</g>
<!-- Node1&#45;&gt;Node4 -->
<g id="edge4" class="edge"><title>Node1&#45;&gt;Node4</title>
<path fill="none" stroke="midnightblue" d="M91.7795,-116.753C96.7233,-108.843 103.977,-97.2372 110.02,-87.5683"/>
<polygon fill="midnightblue" stroke="midnightblue" points="112.996,-89.4102 115.328,-79.0752 107.06,-85.7002 112.996,-89.4102"/>
</g>
<!-- Node6 -->
<g id="node6" class="node"><title>Node6</title>
<g id="a_node6"><a xlink:href="dict_8h.html" target="_top" xlink:title="Enthält die Schnittstelle für ein assoziatives Array (Wörterbuch).">
<polygon fill="white" stroke="black" points="163.049,-59 163.049,-79 202.951,-79 202.951,-59 163.049,-59"/>
<text text-anchor="middle" x="183" y="-65" font-family="Helvetica,sans-Serif" font-size="10.00">dict.h</text>
</a>
</g>
</g>
<!-- Node1&#45;&gt;Node6 -->
<g id="edge6" class="edge"><title>Node1&#45;&gt;Node6</title>
<path fill="none" stroke="midnightblue" d="M102.018,-116.753C117.414,-107.864 140.893,-94.3092 158.613,-84.0793"/>
<polygon fill="midnightblue" stroke="midnightblue" points="160.37,-87.1062 167.28,-79.0752 156.87,-81.0439 160.37,-87.1062"/>
</g>
<!-- Node3&#45;&gt;Node2 -->
<g id="edge3" class="edge"><title>Node3&#45;&gt;Node2</title>
<path fill="none" stroke="midnightblue" d="M46.2112,-58.7527C42.1994,-51.0058 36.352,-39.7142 31.4088,-30.1688"/>
<polygon fill="midnightblue" stroke="midnightblue" points="34.4062,-28.3456 26.6997,-21.0752 28.1903,-31.5647 34.4062,-28.3456"/>
</g>
<!-- Node5 -->
<g id="node5" class="node"><title>Node5</title>
<polygon fill="white" stroke="#bfbfbf" points="95.2095,-1 95.2095,-21 146.791,-21 146.791,-1 95.2095,-1"/>
<text text-anchor="middle" x="121" y="-7" font-family="Helvetica,sans-Serif" font-size="10.00">stddef.h</text>
</g>
<!-- Node4&#45;&gt;Node5 -->
<g id="edge5" class="edge"><title>Node4&#45;&gt;Node5</title>
<path fill="none" stroke="midnightblue" d="M121,-58.7527C121,-51.2504 121,-40.4238 121,-31.0781"/>
<polygon fill="midnightblue" stroke="midnightblue" points="124.5,-31.0752 121,-21.0752 117.5,-31.0752 124.5,-31.0752"/>
</g>
</g>
</svg>
