<?xml version="1.0" encoding="UTF-8" standalone="no"?>
<!DOCTYPE svg PUBLIC "-//W3C//DTD SVG 1.1//EN"
 "http://www.w3.org/Graphics/SVG/1.1/DTD/svg11.dtd">
<!-- Generated by graphviz version 2.30.0 (20130114.0426)
 -->
<!-- Title: symtab.c Pages: 1 -->
<svg width="324pt" height="204pt"
 viewBox="0.00 0.00 324.00 204.00" xmlns="http://www.w3.org/2000/svg" xmlns:xlink="http://www.w3.org/1999/xlink">
<g id="graph0" class="graph" transform="scale(1 1) rotate(0) translate(4 200)">
<title>symtab.c</title>
<polygon fill="white" stroke="white" points="-4,5 -4,-200 321,-200 321,5 -4,5"/>
<!-- Node1 -->
<g id="node1" class="node"><title>Node1</title>
<polygon fill="#bfbfbf" stroke="black" points="163.995,-175 163.995,-195 220.005,-195 220.005,-175 163.995,-175"/>
<text text-anchor="middle" x="192" y="-181" font-family="Helvetica,sans-Serif" font-size="10.00">symtab.c</text>
</g>
<!-- Node2 -->
<g id="node2" class="node"><title>Node2</title>
<g id="a_node2"><a xlink:href="symtab_8h.html" target="_top" xlink:title="Enthält eine Datenstruktur für die Verwaltung von Symbolen in einer Tabelle mit geschichteten Sichtba...">
<polygon fill="white" stroke="black" points="57.7144,-117 57.7144,-137 114.286,-137 114.286,-117 57.7144,-117"/>
<text text-anchor="middle" x="86" y="-123" font-family="Helvetica,sans-Serif" font-size="10.00">symtab.h</text>
</a>
</g>
</g>
<!-- Node1&#45;&gt;Node2 -->
<g id="edge1" class="edge"><title>Node1&#45;&gt;Node2</title>
<path fill="none" stroke="midnightblue" d="M174.496,-174.753C157.517,-165.783 131.542,-152.06 112.119,-141.799"/>
<polygon fill="midnightblue" stroke="midnightblue" points="113.655,-138.652 103.178,-137.075 110.385,-144.841 113.655,-138.652"/>
</g>
<!-- Node8 -->
<g id="node8" class="node"><title>Node8</title>
<polygon fill="white" stroke="#bfbfbf" points="132.214,-117 132.214,-137 183.786,-137 183.786,-117 132.214,-117"/>
<text text-anchor="middle" x="158" y="-123" font-family="Helvetica,sans-Serif" font-size="10.00">assert.h</text>
</g>
<!-- Node1&#45;&gt;Node8 -->
<g id="edge8" class="edge"><title>Node1&#45;&gt;Node8</title>
<path fill="none" stroke="midnightblue" d="M186.386,-174.753C181.633,-166.924 174.682,-155.476 168.848,-145.868"/>
<polygon fill="midnightblue" stroke="midnightblue" points="171.692,-143.807 163.51,-137.075 165.708,-147.44 171.692,-143.807"/>
</g>
<!-- Node9 -->
<g id="node9" class="node"><title>Node9</title>
<polygon fill="white" stroke="#bfbfbf" points="202.158,-117 202.158,-137 249.842,-137 249.842,-117 202.158,-117"/>
<text text-anchor="middle" x="226" y="-123" font-family="Helvetica,sans-Serif" font-size="10.00">stdlib.h</text>
</g>
<!-- Node1&#45;&gt;Node9 -->
<g id="edge9" class="edge"><title>Node1&#45;&gt;Node9</title>
<path fill="none" stroke="midnightblue" d="M197.614,-174.753C202.367,-166.924 209.318,-155.476 215.152,-145.868"/>
<polygon fill="midnightblue" stroke="midnightblue" points="218.292,-147.44 220.49,-137.075 212.308,-143.807 218.292,-147.44"/>
</g>
<!-- Node10 -->
<g id="node10" class="node"><title>Node10</title>
<polygon fill="white" stroke="#bfbfbf" points="267.604,-117 267.604,-137 316.396,-137 316.396,-117 267.604,-117"/>
<text text-anchor="middle" x="292" y="-123" font-family="Helvetica,sans-Serif" font-size="10.00">string.h</text>
</g>
<!-- Node1&#45;&gt;Node10 -->
<g id="edge10" class="edge"><title>Node1&#45;&gt;Node10</title>
<path fill="none" stroke="midnightblue" d="M208.513,-174.753C224.386,-165.864 248.591,-152.309 266.858,-142.079"/>
<polygon fill="midnightblue" stroke="midnightblue" points="268.779,-145.015 275.794,-137.075 265.359,-138.907 268.779,-145.015"/>
</g>
<!-- Node3 -->
<g id="node3" class="node"><title>Node3</title>
<polygon fill="white" stroke="#bfbfbf" points="-0.731445,-1 -0.731445,-21 44.7314,-21 44.7314,-1 -0.731445,-1"/>
<text text-anchor="middle" x="22" y="-7" font-family="Helvetica,sans-Serif" font-size="10.00">stdio.h</text>
</g>
<!-- Node2&#45;&gt;Node3 -->
<g id="edge2" class="edge"><title>Node2&#45;&gt;Node3</title>
<path fill="none" stroke="midnightblue" d="M59.4059,-116.911C42.8305,-109.705 22.8432,-97.837 13,-80 4.57358,-64.7303 8.73388,-44.6768 13.8374,-30.3103"/>
<polygon fill="midnightblue" stroke="midnightblue" points="17.0955,-31.589 17.5538,-21.0041 10.5946,-28.9929 17.0955,-31.589"/>
</g>
<!-- Node4 -->
<g id="node4" class="node"><title>Node4</title>
<g id="a_node4"><a xlink:href="syntree_8h.html" target="_top" xlink:title="Enthält eine Datenstruktur für abstrakte Syntaxbäume.">
<polygon fill="white" stroke="black" points="22.4336,-59 22.4336,-79 79.5664,-79 79.5664,-59 22.4336,-59"/>
<text text-anchor="middle" x="51" y="-65" font-family="Helvetica,sans-Serif" font-size="10.00">syntree.h</text>
</a>
</g>
</g>
<!-- Node2&#45;&gt;Node4 -->
<g id="edge3" class="edge"><title>Node2&#45;&gt;Node4</title>
<path fill="none" stroke="midnightblue" d="M80.2205,-116.753C75.2767,-108.843 68.0233,-97.2372 61.9802,-87.5683"/>
<polygon fill="midnightblue" stroke="midnightblue" points="64.94,-85.7002 56.672,-79.0752 59.004,-89.4102 64.94,-85.7002"/>
</g>
<!-- Node5 -->
<g id="node5" class="node"><title>Node5</title>
<g id="a_node5"><a xlink:href="stack_8h.html" target="_top" xlink:title="Enthält die Schnittstelle eines generalisierten Stacks.">
<polygon fill="white" stroke="black" points="97.1602,-59 97.1602,-79 144.84,-79 144.84,-59 97.1602,-59"/>
<text text-anchor="middle" x="121" y="-65" font-family="Helvetica,sans-Serif" font-size="10.00">stack.h</text>
</a>
</g>
</g>
<!-- Node2&#45;&gt;Node5 -->
<g id="edge5" class="edge"><title>Node2&#45;&gt;Node5</title>
<path fill="none" stroke="midnightblue" d="M91.7795,-116.753C96.7233,-108.843 103.977,-97.2372 110.02,-87.5683"/>
<polygon fill="midnightblue" stroke="midnightblue" points="112.996,-89.4102 115.328,-79.0752 107.06,-85.7002 112.996,-89.4102"/>
</g>
<!-- Node7 -->
<g id="node7" class="node"><title>Node7</title>
<g id="a_node7"><a xlink:href="dict_8h.html" target="_top" xlink:title="Enthält die Schnittstelle für ein assoziatives Array (Wörterbuch).">
<polygon fill="white" stroke="black" points="163.049,-59 163.049,-79 202.951,-79 202.951,-59 163.049,-59"/>
<text text-anchor="middle" x="183" y="-65" font-family="Helvetica,sans-Serif" font-size="10.00">dict.h</text>
</a>
</g>
</g>
<!-- Node2&#45;&gt;Node7 -->
<g id="edge7" class="edge"><title>Node2&#45;&gt;Node7</title>
<path fill="none" stroke="midnightblue" d="M102.018,-116.753C117.414,-107.864 140.893,-94.3092 158.613,-84.0793"/>
<polygon fill="midnightblue" stroke="midnightblue" points="160.37,-87.1062 167.28,-79.0752 156.87,-81.0439 160.37,-87.1062"/>
</g>
<!-- Node4&#45;&gt;Node3 -->
<g id="edge4" class="edge"><title>Node4&#45;&gt;Node3</title>
<path fill="none" stroke="midnightblue" d="M46.2112,-58.7527C42.1994,-51.0058 36.352,-39.7142 31.4088,-30.1688"/>
<polygon fill="midnightblue" stroke="midnightblue" points="34.4062,-28.3456 26.6997,-21.0752 28.1903,-31.5647 34.4062,-28.3456"/>
</g>
<!-- Node6 -->
<g id="node6" class="node"><title>Node6</title>
<polygon fill="white" stroke="#bfbfbf" points="95.2095,-1 95.2095,-21 146.791,-21 146.791,-1 95.2095,-1"/>
<text text-anchor="middle" x="121" y="-7" font-family="Helvetica,sans-Serif" font-size="10.00">stddef.h</text>
</g>
<!-- Node5&#45;&gt;Node6 -->
<g id="edge6" class="edge"><title>Node5&#45;&gt;Node6</title>
<path fill="none" stroke="midnightblue" d="M121,-58.7527C121,-51.2504 121,-40.4238 121,-31.0781"/>
<polygon fill="midnightblue" stroke="midnightblue" points="124.5,-31.0752 121,-21.0752 117.5,-31.0752 124.5,-31.0752"/>
</g>
</g>
</svg>
