<?xml version="1.0" encoding="UTF-8" standalone="no"?>
<!DOCTYPE svg PUBLIC "-//W3C//DTD SVG 1.1//EN"
 "http://www.w3.org/Graphics/SVG/1.1/DTD/svg11.dtd">
<!-- Generated by graphviz version 2.30.0 (20130114.0426)
 -->
<!-- Title: syntree.c Pages: 1 -->
<svg width="333pt" height="204pt"
 viewBox="0.00 0.00 333.42 204.00" xmlns="http://www.w3.org/2000/svg" xmlns:xlink="http://www.w3.org/1999/xlink">
<g id="graph0" class="graph" transform="scale(1 1) rotate(0) translate(4 200)">
<title>syntree.c</title>
<polygon fill="white" stroke="white" points="-4,5 -4,-200 330.421,-200 330.421,5 -4,5"/>
<!-- Node1 -->
<g id="node1" class="node"><title>Node1</title>
<polygon fill="#bfbfbf" stroke="black" points="103.135,-175 103.135,-195 159.707,-195 159.707,-175 103.135,-175"/>
<text text-anchor="middle" x="131.421" y="-181" font-family="Helvetica,sans-Serif" font-size="10.00">syntree.c</text>
</g>
<!-- Node2 -->
<g id="node2" class="node"><title>Node2</title>
<g id="a_node2"><a xlink:href="syntree_8h.html" target="_top" xlink:title="Enthält eine Datenstruktur für abstrakte Syntaxbäume.">
<polygon fill="white" stroke="black" points="11.8546,-59 11.8546,-79 68.9874,-79 68.9874,-59 11.8546,-59"/>
<text text-anchor="middle" x="40.421" y="-65" font-family="Helvetica,sans-Serif" font-size="10.00">syntree.h</text>
</a>
</g>
</g>
<!-- Node1&#45;&gt;Node2 -->
<g id="edge1" class="edge"><title>Node1&#45;&gt;Node2</title>
<path fill="none" stroke="midnightblue" d="M109.098,-174.989C93.0304,-167.403 72.0437,-155.047 59.421,-138 48.9456,-123.853 44.2439,-104.179 42.1347,-89.6312"/>
<polygon fill="midnightblue" stroke="midnightblue" points="45.5619,-88.7991 40.9381,-79.2665 38.6081,-89.602 45.5619,-88.7991"/>
</g>
<!-- Node4 -->
<g id="node4" class="node"><title>Node4</title>
<g id="a_node4"><a xlink:href="symtab_8h.html" target="_top" xlink:title="Enthält eine Datenstruktur für die Verwaltung von Symbolen in einer Tabelle mit geschichteten Sichtba...">
<polygon fill="white" stroke="black" points="68.1354,-117 68.1354,-137 124.707,-137 124.707,-117 68.1354,-117"/>
<text text-anchor="middle" x="96.421" y="-123" font-family="Helvetica,sans-Serif" font-size="10.00">symtab.h</text>
</a>
</g>
</g>
<!-- Node1&#45;&gt;Node4 -->
<g id="edge3" class="edge"><title>Node1&#45;&gt;Node4</title>
<path fill="none" stroke="midnightblue" d="M125.641,-174.753C120.698,-166.843 113.444,-155.237 107.401,-145.568"/>
<polygon fill="midnightblue" stroke="midnightblue" points="110.361,-143.7 102.093,-137.075 104.425,-147.41 110.361,-143.7"/>
</g>
<!-- Node3 -->
<g id="node3" class="node"><title>Node3</title>
<polygon fill="white" stroke="#bfbfbf" points="17.6896,-1 17.6896,-21 63.1525,-21 63.1525,-1 17.6896,-1"/>
<text text-anchor="middle" x="40.421" y="-7" font-family="Helvetica,sans-Serif" font-size="10.00">stdio.h</text>
</g>
<!-- Node1&#45;&gt;Node3 -->
<g id="edge9" class="edge"><title>Node1&#45;&gt;Node3</title>
<path fill="none" stroke="midnightblue" d="M108.173,-174.928C89.8239,-167.016 64.2644,-154.262 45.421,-138 21.1275,-117.034 12.4842,-110.471 2.42101,-80 -0.64529,-70.7155 -0.887858,-67.2009 2.42101,-58 6.4172,-46.8879 14.3898,-36.5505 22.0049,-28.5015"/>
<polygon fill="midnightblue" stroke="midnightblue" points="24.6752,-30.7839 29.3402,-21.2713 19.7613,-25.7985 24.6752,-30.7839"/>
</g>
<!-- Node8 -->
<g id="node8" class="node"><title>Node8</title>
<polygon fill="white" stroke="#bfbfbf" points="142.579,-117 142.579,-137 190.263,-137 190.263,-117 142.579,-117"/>
<text text-anchor="middle" x="166.421" y="-123" font-family="Helvetica,sans-Serif" font-size="10.00">stdlib.h</text>
</g>
<!-- Node1&#45;&gt;Node8 -->
<g id="edge10" class="edge"><title>Node1&#45;&gt;Node8</title>
<path fill="none" stroke="midnightblue" d="M137.201,-174.753C142.144,-166.843 149.398,-155.237 155.441,-145.568"/>
<polygon fill="midnightblue" stroke="midnightblue" points="158.417,-147.41 160.749,-137.075 152.481,-143.7 158.417,-147.41"/>
</g>
<!-- Node9 -->
<g id="node9" class="node"><title>Node9</title>
<polygon fill="white" stroke="#bfbfbf" points="208.025,-117 208.025,-137 256.817,-137 256.817,-117 208.025,-117"/>
<text text-anchor="middle" x="232.421" y="-123" font-family="Helvetica,sans-Serif" font-size="10.00">string.h</text>
</g>
<!-- Node1&#45;&gt;Node9 -->
<g id="edge11" class="edge"><title>Node1&#45;&gt;Node9</title>
<path fill="none" stroke="midnightblue" d="M148.099,-174.753C164.204,-165.823 188.802,-152.185 207.281,-141.939"/>
<polygon fill="midnightblue" stroke="midnightblue" points="209.005,-144.985 216.053,-137.075 205.61,-138.863 209.005,-144.985"/>
</g>
<!-- Node10 -->
<g id="node10" class="node"><title>Node10</title>
<polygon fill="white" stroke="#bfbfbf" points="274.635,-117 274.635,-137 326.207,-137 326.207,-117 274.635,-117"/>
<text text-anchor="middle" x="300.421" y="-123" font-family="Helvetica,sans-Serif" font-size="10.00">assert.h</text>
</g>
<!-- Node1&#45;&gt;Node10 -->
<g id="edge12" class="edge"><title>Node1&#45;&gt;Node10</title>
<path fill="none" stroke="midnightblue" d="M158.95,-174.878C187.814,-165.314 233.278,-150.248 264.846,-139.788"/>
<polygon fill="midnightblue" stroke="midnightblue" points="266.177,-143.034 274.568,-136.567 263.975,-136.39 266.177,-143.034"/>
</g>
<!-- Node2&#45;&gt;Node3 -->
<g id="edge2" class="edge"><title>Node2&#45;&gt;Node3</title>
<path fill="none" stroke="midnightblue" d="M40.421,-58.7527C40.421,-51.2504 40.421,-40.4238 40.421,-31.0781"/>
<polygon fill="midnightblue" stroke="midnightblue" points="43.9211,-31.0752 40.421,-21.0752 36.9211,-31.0752 43.9211,-31.0752"/>
</g>
<!-- Node4&#45;&gt;Node3 -->
<g id="edge4" class="edge"><title>Node4&#45;&gt;Node3</title>
<path fill="none" stroke="midnightblue" d="M95.0592,-116.767C92.8048,-103.269 87.5102,-77.622 77.421,-58 71.9377,-47.3358 63.7381,-36.811 56.4503,-28.5257"/>
<polygon fill="midnightblue" stroke="midnightblue" points="58.9418,-26.0642 49.6008,-21.0646 53.7852,-30.7981 58.9418,-26.0642"/>
</g>
<!-- Node4&#45;&gt;Node2 -->
<g id="edge5" class="edge"><title>Node4&#45;&gt;Node2</title>
<path fill="none" stroke="midnightblue" d="M87.1737,-116.753C78.9375,-108.516 66.6948,-96.2738 56.8034,-86.3824"/>
<polygon fill="midnightblue" stroke="midnightblue" points="59.0422,-83.6714 49.4962,-79.0752 54.0924,-88.6212 59.0422,-83.6714"/>
</g>
<!-- Node5 -->
<g id="node5" class="node"><title>Node5</title>
<g id="a_node5"><a xlink:href="stack_8h.html" target="_top" xlink:title="Enthält die Schnittstelle eines generalisierten Stacks.">
<polygon fill="white" stroke="black" points="125.581,-59 125.581,-79 173.261,-79 173.261,-59 125.581,-59"/>
<text text-anchor="middle" x="149.421" y="-65" font-family="Helvetica,sans-Serif" font-size="10.00">stack.h</text>
</a>
</g>
</g>
<!-- Node4&#45;&gt;Node5 -->
<g id="edge6" class="edge"><title>Node4&#45;&gt;Node5</title>
<path fill="none" stroke="midnightblue" d="M105.173,-116.753C112.968,-108.516 124.555,-96.2738 133.916,-86.3824"/>
<polygon fill="midnightblue" stroke="midnightblue" points="136.5,-88.744 140.832,-79.0752 131.416,-83.9323 136.5,-88.744"/>
</g>
<!-- Node7 -->
<g id="node7" class="node"><title>Node7</title>
<g id="a_node7"><a xlink:href="dict_8h.html" target="_top" xlink:title="Enthält die Schnittstelle für ein assoziatives Array (Wörterbuch).">
<polygon fill="white" stroke="black" points="191.47,-59 191.47,-79 231.372,-79 231.372,-59 191.47,-59"/>
<text text-anchor="middle" x="211.421" y="-65" font-family="Helvetica,sans-Serif" font-size="10.00">dict.h</text>
</a>
</g>
</g>
<!-- Node4&#45;&gt;Node7 -->
<g id="edge8" class="edge"><title>Node4&#45;&gt;Node7</title>
<path fill="none" stroke="midnightblue" d="M115.154,-116.878C133.698,-107.847 162.314,-93.9132 183.531,-83.5812"/>
<polygon fill="midnightblue" stroke="midnightblue" points="185.238,-86.643 192.696,-79.1181 182.173,-80.3495 185.238,-86.643"/>
</g>
<!-- Node6 -->
<g id="node6" class="node"><title>Node6</title>
<polygon fill="white" stroke="#bfbfbf" points="123.63,-1 123.63,-21 175.212,-21 175.212,-1 123.63,-1"/>
<text text-anchor="middle" x="149.421" y="-7" font-family="Helvetica,sans-Serif" font-size="10.00">stddef.h</text>
</g>
<!-- Node5&#45;&gt;Node6 -->
<g id="edge7" class="edge"><title>Node5&#45;&gt;Node6</title>
<path fill="none" stroke="midnightblue" d="M149.421,-58.7527C149.421,-51.2504 149.421,-40.4238 149.421,-31.0781"/>
<polygon fill="midnightblue" stroke="midnightblue" points="152.921,-31.0752 149.421,-21.0752 145.921,-31.0752 152.921,-31.0752"/>
</g>
</g>
</svg>
